<?xml version="1.0" encoding="utf-8"?>
<!-- Generator: Adobe Illustrator 28.0.0, SVG Export Plug-In . SVG Version: 6.00 Build 0)  -->
<svg version="1.1" id="Réteg_1" xmlns="http://www.w3.org/2000/svg" xmlns:xlink="http://www.w3.org/1999/xlink" x="0px" y="0px"
	 viewBox="0 0 283.5 283.5" style="enable-background:new 0 0 283.5 283.5;" xml:space="preserve">
<style type="text/css">
	.st0{fill:#A28043;}
	.st1{fill:url(#SVGID_1_);}
	.st2{fill:url(#SVGID_00000056415667068549186020000006092442382640367510_);}
	.st3{fill:url(#SVGID_00000156569625548475998270000017116196804281888676_);}
	.st4{fill:url(#SVGID_00000067200206136780973220000001107498575413172878_);}
	.st5{fill:url(#SVGID_00000153693884052590570030000013322756559609585591_);}
	.st6{fill:url(#SVGID_00000025416488271645288620000012793518765542368153_);}
	.st7{fill:url(#SVGID_00000139997452609155040960000009531003491217354130_);}
	.st8{fill:url(#SVGID_00000075152016647398353560000017593363838243810438_);}
	.st9{fill:url(#SVGID_00000079452967162539617410000010053082170942487705_);}
	.st10{fill:url(#SVGID_00000022526436102075294920000016335495410379502014_);}
	.st11{fill:url(#SVGID_00000036219897884375203820000007544181137881891731_);}
	.st12{fill:url(#SVGID_00000078012525612012806900000003055893619483344318_);}
	.st13{fill:url(#SVGID_00000000909135699585325650000002627255939413350569_);}
	.st14{fill:url(#SVGID_00000030451763833905585000000003473009235813140398_);}
	.st15{fill:url(#SVGID_00000124848076155920517060000004798876805005407422_);}
	.st16{fill:url(#SVGID_00000011747896209070747050000014311090387111123621_);}
	.st17{fill:url(#SVGID_00000145027318030859367810000002341753111193150376_);}
	.st18{fill:url(#SVGID_00000045618528377342509170000008092756870242383525_);}
	.st19{fill:url(#SVGID_00000047764438734101265120000010812084530155409033_);}
	.st20{fill:url(#SVGID_00000101102273979487944860000005292432714140389308_);}
	.st21{fill:url(#SVGID_00000092452622313675418330000002344704495117365377_);}
	.st22{fill:url(#SVGID_00000085234031365355247090000015543041893204133002_);}
	.st23{fill:url(#SVGID_00000089574548888790961490000018129685846930151309_);}
	.st24{fill:url(#SVGID_00000010301500458095560590000003857736451163437214_);}
	.st25{fill:url(#SVGID_00000079446565899825836840000008775394095743266721_);}
	.st26{fill:url(#SVGID_00000098197812530022869420000005755011039333152428_);}
	.st27{fill:url(#SVGID_00000127750881689339629650000014003397097174121381_);}
	.st28{fill:url(#SVGID_00000069365925581375279590000014320112391729017473_);}
</style>
<g>
	<g>
		<path class="st0" d="M69.4,235.7c0,0.8-0.2,1.6-0.5,2.2s-0.8,1.2-1.4,1.6c-0.6,0.4-1.3,0.7-2.1,1c-0.8,0.2-1.6,0.3-2.4,0.3
			c-1.2,0-2.3-0.2-3.4-0.6c-1.1-0.4-2.1-1-2.9-1.9l1-4.1c-0.1,1.1,0,2,0.3,2.8c0.3,0.8,0.7,1.5,1.2,2c0.5,0.5,1.1,0.9,1.7,1.2
			s1.3,0.4,2,0.4c0.6,0,1.1-0.1,1.6-0.3c0.5-0.2,1-0.4,1.4-0.8c0.4-0.3,0.7-0.8,1-1.3c0.2-0.5,0.4-1.1,0.4-1.8
			c0-0.9-0.2-1.7-0.7-2.3c-0.5-0.6-1.1-1.2-1.8-1.7c-0.7-0.5-1.5-1-2.3-1.4s-1.6-0.9-2.3-1.4c-0.7-0.5-1.3-1.1-1.8-1.7
			c-0.5-0.6-0.7-1.4-0.7-2.3c0-0.8,0.2-1.4,0.4-1.9c0.3-0.6,0.7-1,1.2-1.4s1-0.6,1.7-0.8s1.3-0.2,1.9-0.2c0.9,0,1.7,0.1,2.6,0.4
			c0.8,0.3,1.5,0.6,2.1,1.1l-0.4,3.4c0-0.8-0.1-1.5-0.3-2.1c-0.2-0.6-0.5-1.1-0.9-1.4s-0.8-0.6-1.3-0.8s-1-0.3-1.5-0.3
			c-0.5,0-0.9,0.1-1.3,0.2s-0.8,0.4-1.2,0.6c-0.3,0.3-0.6,0.6-0.8,1s-0.3,0.9-0.3,1.4c0,0.8,0.2,1.4,0.7,2s1.1,1.1,1.8,1.6
			c0.7,0.5,1.5,0.9,2.4,1.4s1.7,0.9,2.4,1.5c0.7,0.6,1.3,1.2,1.8,1.9C69.1,233.8,69.4,234.7,69.4,235.7z"/>
		<path class="st0" d="M77,240.2c1,0,1.8-0.2,2.5-0.6c0.6-0.4,1.1-0.8,1.4-1.3c0.3-0.5,0.6-1,0.7-1.4c0.1-0.5,0.2-0.8,0.3-1.1
			l-0.8,4.6H70.9v-0.2l8.2-18.4H76c-1,0-1.9,0.2-2.5,0.6c-0.6,0.4-1.1,0.8-1.4,1.3c-0.3,0.5-0.6,1-0.7,1.4s-0.2,0.8-0.3,1.1l0.8-4.6
			h9.7v0.2l-8.3,18.4H77z"/>
		<path class="st0" d="M107.8,243c-0.6,0.2-1.2,0.3-1.8,0.4s-1.3,0.1-2,0.1c-1.1,0-2.2-0.1-3.3-0.4s-2.2-0.8-3.3-1.5
			c-1.1-0.7-2-1.6-2.9-2.8s-1.6-2.6-2.1-4.4h-5.9l-0.5,1.6c-0.3,1-0.5,1.9-0.6,2.4c-0.1,0.6,0,1,0.2,1.3s0.4,0.5,0.8,0.6
			s0.8,0.1,1.2,0.2h-5.7c0.6-0.1,1-0.1,1.4-0.3s0.7-0.3,1-0.7s0.5-0.8,0.8-1.4c0.2-0.6,0.5-1.4,0.9-2.4l4.6-14.5h0.1l4,12.5
			c0.6,1.9,1.3,3.4,2.2,4.6c0.8,1.2,1.8,2.2,2.8,2.9s2,1.2,3,1.5s2,0.4,2.9,0.4c0.5,0,0.9,0,1.3-0.1s0.8-0.1,1.2-0.2L107.8,243z
			 M86.5,234.1h5.8l-2.8-9.4L86.5,234.1z M94.2,216.7l-4.1,3.7l-0.1-0.1l3.1-4.6L94.2,216.7z"/>
		<path class="st0" d="M105.4,240.2c1,0,1.8-0.2,2.5-0.6c0.6-0.4,1.1-0.8,1.4-1.3s0.6-1,0.7-1.4s0.2-0.8,0.3-1.1l-0.8,4.6H99.3v-0.2
			l8.2-18.4h-3.1c-1,0-1.9,0.2-2.5,0.6c-0.6,0.4-1.1,0.8-1.4,1.3s-0.6,1-0.7,1.4s-0.2,0.8-0.3,1.1l0.8-4.6h9.7v0.2l-8.3,18.4H105.4z
			"/>
		<path class="st0" d="M124.6,235.7c0,0.8-0.2,1.6-0.5,2.2s-0.8,1.2-1.4,1.6c-0.6,0.4-1.3,0.7-2,1c-0.8,0.2-1.6,0.3-2.4,0.3
			c-1.2,0-2.3-0.2-3.4-0.6c-1.1-0.4-2.1-1-2.9-1.9l1-4.1c-0.1,1.1,0,2,0.3,2.8c0.3,0.8,0.7,1.5,1.2,2c0.5,0.5,1.1,0.9,1.7,1.2
			c0.7,0.2,1.3,0.4,2,0.4c0.6,0,1.1-0.1,1.6-0.3c0.5-0.2,1-0.4,1.4-0.8c0.4-0.3,0.7-0.8,1-1.3c0.2-0.5,0.4-1.1,0.4-1.8
			c0-0.9-0.2-1.7-0.7-2.3s-1.1-1.2-1.8-1.7c-0.7-0.5-1.5-1-2.3-1.4s-1.6-0.9-2.3-1.4c-0.7-0.5-1.3-1.1-1.8-1.7
			c-0.5-0.6-0.7-1.4-0.7-2.3c0-0.8,0.2-1.4,0.4-1.9s0.7-1,1.2-1.4s1.1-0.6,1.7-0.8s1.3-0.2,1.9-0.2c0.9,0,1.7,0.1,2.6,0.4
			c0.8,0.3,1.5,0.6,2.1,1.1l-0.4,3.4c0-0.8-0.1-1.5-0.3-2.1c-0.2-0.6-0.5-1.1-0.9-1.4s-0.8-0.6-1.3-0.8s-1-0.3-1.5-0.3
			c-0.4,0-0.9,0.1-1.3,0.2s-0.8,0.4-1.2,0.6s-0.6,0.6-0.8,1s-0.3,0.9-0.3,1.4c0,0.8,0.2,1.4,0.7,2s1.1,1.1,1.8,1.6s1.5,0.9,2.4,1.4
			s1.7,0.9,2.4,1.5c0.7,0.6,1.3,1.2,1.8,1.9C124.4,233.8,124.6,234.7,124.6,235.7z"/>
		<path class="st0" d="M132.2,240.2c1,0,1.8-0.2,2.5-0.6c0.6-0.4,1.1-0.8,1.4-1.3s0.6-1,0.7-1.4s0.2-0.8,0.3-1.1l-0.8,4.6h-10.2
			v-0.2l8.2-18.4h-3.1c-1,0-1.9,0.2-2.5,0.6c-0.6,0.4-1.1,0.8-1.4,1.3s-0.6,1-0.7,1.4s-0.2,0.8-0.3,1.1l0.8-4.6h9.7v0.2l-8.3,18.4
			H132.2z"/>
		<path class="st0" d="M158,231c0,1.6-0.3,3.1-0.9,4.3c-0.6,1.2-1.3,2.2-2.2,3.1s-2,1.4-3.1,1.8s-2.4,0.6-3.6,0.6
			c-1.2,0-2.4-0.2-3.6-0.6s-2.2-1-3.1-1.8c-0.9-0.8-1.7-1.8-2.2-3.1c-0.6-1.2-0.9-2.7-0.9-4.3c0-1.6,0.3-3.1,0.9-4.3
			c0.6-1.2,1.3-2.2,2.2-3.1s2-1.4,3.1-1.8c1.2-0.4,2.4-0.6,3.6-0.6c1.2,0,2.4,0.2,3.6,0.6s2.2,1,3.1,1.8s1.7,1.9,2.2,3.1
			C157.7,227.9,158,229.4,158,231z M140.8,231c0,1.6,0.2,3,0.6,4.2s1,2.2,1.7,3c0.7,0.8,1.5,1.4,2.4,1.8c0.9,0.4,1.8,0.6,2.7,0.6
			s1.8-0.2,2.7-0.6c0.9-0.4,1.7-1,2.4-1.8c0.7-0.8,1.2-1.8,1.7-3s0.6-2.6,0.6-4.2c0-1.6-0.2-3-0.6-4.2s-1-2.2-1.7-3
			s-1.5-1.4-2.4-1.8c-0.9-0.4-1.8-0.6-2.7-0.6s-1.8,0.2-2.7,0.6c-0.9,0.4-1.7,1-2.4,1.8s-1.2,1.8-1.7,3
			C141,228,140.8,229.4,140.8,231z"/>
		<path class="st0" d="M182.2,243c-0.6,0.2-1.3,0.3-2,0.4s-1.5,0.2-2.3,0.2c-0.9,0-1.7-0.1-2.6-0.2s-1.7-0.4-2.5-0.8
			c-0.8-0.4-1.6-0.9-2.3-1.5s-1.4-1.4-1.9-2.4c-0.7-1.2-1.3-2.1-1.8-2.9c-0.5-0.7-1-1.1-1.6-1.1h-1.6v3.1c0,0.6,0.1,1,0.1,1.3
			c0.1,0.3,0.2,0.6,0.4,0.8s0.4,0.3,0.6,0.4c0.2,0.1,0.5,0.1,0.8,0.2h-6.2c0.3,0,0.6-0.1,0.8-0.2s0.5-0.2,0.6-0.4
			c0.2-0.2,0.3-0.4,0.4-0.8c0.1-0.3,0.1-0.8,0.1-1.3v-13.6c0-0.6-0.1-1-0.1-1.3c-0.1-0.3-0.2-0.6-0.4-0.8s-0.4-0.3-0.6-0.4
			c-0.2-0.1-0.5-0.1-0.8-0.2h5.7c1.4,0,2.6,0.3,3.6,0.9s1.7,1.3,2.2,2.2s0.8,1.9,0.9,3c0.1,1.1-0.1,2.1-0.5,3.1
			c-0.4,1-1,1.8-1.9,2.5s-1.9,1.1-3.3,1.3c0.6,0.1,1.1,0.2,1.5,0.4c0.4,0.2,0.8,0.4,1.2,0.8c0.4,0.3,0.7,0.7,1,1.1s0.6,0.9,0.9,1.4
			c0.6,1,1.3,1.8,2,2.4s1.5,1.1,2.2,1.5s1.5,0.6,2.3,0.8s1.5,0.2,2.2,0.2c0.5,0,0.9,0,1.4-0.1s0.8-0.1,1.2-0.2L182.2,243z
			 M163.7,234.5h1.6c1,0,1.8-0.3,2.5-0.9s1.2-1.4,1.5-2.3c0.3-0.9,0.5-1.9,0.5-3s-0.2-2.1-0.5-3s-0.8-1.7-1.5-2.3
			c-0.7-0.6-1.5-0.9-2.5-0.9h-0.1c-0.3,0-0.5,0-0.7,0.1c-0.2,0-0.4,0.1-0.5,0.3s-0.2,0.4-0.3,0.7s-0.1,0.7-0.1,1.2V234.5z"/>
		<path class="st0" d="M186.3,235.7c0,0.8-0.2,1.6-0.5,2.2s-0.8,1.2-1.4,1.6c-0.6,0.4-1.3,0.7-2,1c-0.8,0.2-1.6,0.3-2.4,0.3
			c-1.2,0-2.3-0.2-3.4-0.6c-1.1-0.4-2.1-1-2.9-1.9l1-4.1c-0.1,1.1,0,2,0.3,2.8c0.3,0.8,0.7,1.5,1.2,2c0.5,0.5,1.1,0.9,1.7,1.2
			c0.6,0.2,1.3,0.4,2,0.4c0.6,0,1.1-0.1,1.6-0.3c0.5-0.2,1-0.4,1.4-0.8c0.4-0.3,0.7-0.8,1-1.3c0.2-0.5,0.4-1.1,0.4-1.8
			c0-0.9-0.2-1.7-0.7-2.3s-1.1-1.2-1.8-1.7c-0.7-0.5-1.5-1-2.3-1.4s-1.6-0.9-2.3-1.4c-0.7-0.5-1.3-1.1-1.8-1.7
			c-0.5-0.6-0.7-1.4-0.7-2.3c0-0.8,0.1-1.4,0.4-1.9s0.7-1,1.2-1.4s1.1-0.6,1.7-0.8c0.6-0.2,1.3-0.2,1.9-0.2c0.9,0,1.7,0.1,2.6,0.4
			c0.8,0.3,1.5,0.6,2.1,1.1l-0.4,3.4c0-0.8-0.1-1.5-0.4-2.1c-0.2-0.6-0.5-1.1-0.9-1.4s-0.8-0.6-1.3-0.8s-1-0.3-1.5-0.3
			c-0.4,0-0.9,0.1-1.3,0.2s-0.8,0.4-1.2,0.6s-0.6,0.6-0.8,1s-0.3,0.9-0.3,1.4c0,0.8,0.2,1.4,0.7,2s1.1,1.1,1.8,1.6s1.5,0.9,2.4,1.4
			s1.6,0.9,2.4,1.5c0.7,0.6,1.3,1.2,1.8,1.9C186.1,233.8,186.3,234.7,186.3,235.7z"/>
		<path class="st0" d="M193.9,240.2c1,0,1.8-0.2,2.5-0.6c0.6-0.4,1.1-0.8,1.4-1.3s0.6-1,0.7-1.4s0.2-0.8,0.3-1.1l-0.8,4.6h-10.2
			v-0.2l8.2-18.4H193c-1,0-1.9,0.2-2.5,0.6c-0.6,0.4-1.1,0.8-1.4,1.3s-0.6,1-0.7,1.4s-0.2,0.8-0.3,1.1l0.8-4.6h9.7v0.2l-8.3,18.4
			H193.9z"/>
		<path class="st0" d="M211.7,240.4L211.7,240.4l-11.8,0c0.3,0,0.6-0.1,0.8-0.2s0.5-0.2,0.6-0.4c0.2-0.2,0.3-0.4,0.4-0.8
			c0.1-0.3,0.1-0.8,0.1-1.3v-13.6c0-0.6-0.1-1-0.1-1.3c-0.1-0.3-0.2-0.6-0.4-0.8s-0.4-0.3-0.6-0.4c-0.2-0.1-0.5-0.1-0.8-0.2h11.4
			l0.8,4.6c-0.1-0.2-0.2-0.6-0.3-1.1s-0.4-1-0.7-1.4c-0.3-0.5-0.8-0.9-1.4-1.3c-0.6-0.4-1.4-0.6-2.5-0.6h-3.1v8.6h3.5
			c0.4,0,0.8-0.1,1-0.3c0.2-0.2,0.4-0.4,0.6-0.6s0.2-0.5,0.3-0.8c0.1-0.3,0.1-0.6,0.1-0.8v5.3c0-0.2-0.1-0.5-0.1-0.8
			s-0.2-0.6-0.3-0.8c-0.1-0.3-0.3-0.5-0.6-0.6c-0.2-0.2-0.6-0.3-1-0.3h-3.5v7.3c0,0.5,0,0.9,0.1,1.2c0,0.3,0.1,0.5,0.3,0.7
			s0.4,0.3,0.7,0.3c0.3,0,0.8,0.1,1.4,0.1h1c1,0,1.9-0.2,2.5-0.6c0.6-0.4,1.1-0.8,1.4-1.3s0.6-1,0.7-1.4s0.2-0.8,0.3-1.1
			L211.7,240.4z M209.2,216.7l-4.1,3.7l-0.1-0.1l3.1-4.6L209.2,216.7z"/>
		<path class="st0" d="M218.6,237.8c0,0.6,0.1,1,0.1,1.3c0.1,0.3,0.2,0.6,0.4,0.8s0.4,0.3,0.6,0.4c0.2,0.1,0.5,0.1,0.8,0.2h-6.2
			c0.3,0,0.6-0.1,0.8-0.2s0.5-0.2,0.6-0.4c0.2-0.2,0.3-0.4,0.4-0.8c0.1-0.3,0.1-0.8,0.1-1.3v-13.6c0-0.6-0.1-1-0.1-1.3
			c-0.1-0.3-0.2-0.6-0.4-0.8s-0.4-0.3-0.6-0.4c-0.2-0.1-0.5-0.1-0.8-0.2h5.7c1.5,0,2.8,0.3,3.8,1c1,0.6,1.7,1.4,2.2,2.4
			c0.5,1,0.7,2,0.7,3.1c0,1.1-0.2,2.2-0.8,3.1s-1.2,1.8-2.2,2.4c-1,0.6-2.2,1-3.7,1h-1.6L218.6,237.8L218.6,237.8z M218.6,234.5h1.6
			c1,0,1.8-0.3,2.5-0.9s1.2-1.4,1.5-2.3c0.3-0.9,0.5-1.9,0.5-3s-0.2-2.1-0.5-3s-0.8-1.7-1.5-2.3c-0.7-0.6-1.5-0.9-2.5-0.9h-0.1
			c-0.3,0-0.5,0-0.7,0.1c-0.2,0-0.4,0.1-0.5,0.3s-0.2,0.4-0.3,0.7s-0.1,0.7-0.1,1.2V234.5z"/>
	</g>
	<g>
		<g>
			<path class="st0" d="M76.8,265.2c0,0.6,0.1,1,0.2,1.3s0.2,0.6,0.4,0.8s0.4,0.3,0.7,0.4c0.2,0.1,0.5,0.1,0.8,0.2h-6.2
				c0.3,0,0.6-0.1,0.8-0.2s0.5-0.2,0.6-0.4s0.3-0.4,0.4-0.8s0.2-0.8,0.2-1.3v-13.6c0-0.6-0.1-1-0.2-1.3s-0.2-0.6-0.4-0.8
				s-0.4-0.3-0.6-0.4c-0.2-0.1-0.5-0.1-0.8-0.2h6.2c-0.3,0-0.6,0.1-0.8,0.2s-0.5,0.2-0.7,0.4c-0.2,0.2-0.3,0.4-0.4,0.8
				s-0.2,0.8-0.2,1.3L76.8,265.2L76.8,265.2z M94.5,270.3c-0.6,0.2-1.2,0.3-2,0.4c-0.7,0.1-1.5,0.2-2.2,0.2c-0.9,0-1.7-0.1-2.6-0.2
				s-1.7-0.4-2.6-0.8c-0.8-0.4-1.6-0.9-2.3-1.5s-1.4-1.4-1.9-2.4l-3.9-6.7l0,0h0l4.7-7.2c1.3-2,1.3-3-0.1-3H86
				c-0.3,0-0.6,0.1-0.9,0.2s-0.6,0.3-0.9,0.5c-0.3,0.2-0.6,0.5-1,0.9c-0.3,0.4-0.7,0.9-1.1,1.4l-3.7,5.6c0.8,1.4,1.6,2.7,2.4,4
				c0.8,1.3,1.6,2.7,2.5,4c0.6,1,1.3,1.8,2,2.4c0.7,0.6,1.5,1.1,2.2,1.5s1.5,0.6,2.3,0.8c0.8,0.1,1.5,0.2,2.2,0.2
				c0.5,0,0.9,0,1.3-0.1S94.1,270.3,94.5,270.3L94.5,270.3z"/>
			<path class="st0" d="M105.1,258.4c0,1.6-0.3,3.1-0.8,4.3c-0.6,1.2-1.3,2.2-2.2,3.1c-0.9,0.8-2,1.4-3.2,1.8s-2.4,0.6-3.6,0.6
				c-1.2,0-2.4-0.2-3.6-0.6s-2.2-1-3.1-1.8c-0.9-0.8-1.7-1.8-2.2-3.1s-0.8-2.7-0.8-4.3c0-1.6,0.3-3.1,0.8-4.3
				c0.6-1.2,1.3-2.2,2.2-3.1c0.9-0.8,2-1.4,3.2-1.8c1.2-0.4,2.4-0.6,3.6-0.6c1.2,0,2.4,0.2,3.6,0.6s2.2,1,3.1,1.8s1.7,1.9,2.2,3.1
				S105.1,256.8,105.1,258.4z M87.9,258.4c0,1.6,0.2,3,0.6,4.2s1,2.2,1.7,3c0.7,0.8,1.5,1.4,2.4,1.8c0.9,0.4,1.8,0.6,2.7,0.6
				s1.8-0.2,2.7-0.6c0.9-0.4,1.7-1,2.4-1.8s1.2-1.8,1.7-3s0.6-2.6,0.6-4.2c0-1.6-0.2-3-0.6-4.2s-1-2.2-1.7-3
				c-0.7-0.8-1.5-1.4-2.4-1.8c-0.9-0.4-1.8-0.6-2.7-0.6s-1.8,0.2-2.7,0.6c-0.9,0.4-1.7,1-2.4,1.8s-1.2,1.8-1.7,3
				C88.2,255.4,87.9,256.8,87.9,258.4z"/>
			<path class="st0" d="M112.5,267.6c1,0,1.8-0.2,2.5-0.5s1.1-0.8,1.4-1.3s0.6-1,0.7-1.5s0.2-0.8,0.3-1l-0.8,4.6h-10.2v-0.2
				l8.2-18.4h-3.1c-1,0-1.9,0.2-2.5,0.6c-0.6,0.4-1.1,0.8-1.4,1.3s-0.6,1-0.7,1.4s-0.2,0.8-0.3,1.1l0.8-4.6h9.7v0.2l-8.3,18.3H112.5
				z"/>
			<path class="st0" d="M131.3,251.8l-4.7,16.3h-0.2l-5.7-16.6v12.4c0,1.1,0.2,2,0.6,2.8s0.9,1.1,1.4,1.2h-4.2
				c0.6-0.1,1.1-0.5,1.4-1.2c0.4-0.7,0.6-1.6,0.6-2.8v-12.3c0-0.6-0.1-1-0.2-1.3s-0.2-0.6-0.4-0.8s-0.4-0.3-0.6-0.4
				c-0.2-0.1-0.5-0.1-0.8-0.2h3.5l5.3,15.9l4.6-15.9h3.6c-0.3,0-0.6,0.1-0.8,0.2s-0.5,0.2-0.6,0.4c-0.2,0.2-0.3,0.4-0.4,0.8
				c-0.1,0.3-0.1,0.8-0.1,1.3v13.6c0,0.6,0.1,1,0.1,1.3c0.1,0.3,0.2,0.6,0.4,0.8s0.4,0.3,0.6,0.4c0.2,0.1,0.5,0.1,0.8,0.2h-6.2
				c0.3,0,0.6-0.1,0.8-0.2s0.4-0.2,0.6-0.4c0.2-0.2,0.3-0.4,0.4-0.8c0.1-0.3,0.1-0.8,0.1-1.3L131.3,251.8L131.3,251.8z"/>
			<path class="st0" d="M149.1,267.8L149.1,267.8l-11.8,0c0.3,0,0.6-0.1,0.8-0.2s0.5-0.2,0.6-0.4s0.3-0.4,0.4-0.8
				c0.1-0.3,0.1-0.8,0.1-1.3v-13.6c0-0.6-0.1-1-0.1-1.3c-0.1-0.3-0.2-0.6-0.4-0.8s-0.4-0.3-0.6-0.4c-0.2-0.1-0.5-0.1-0.8-0.2h11.4
				l0.8,4.6c-0.1-0.2-0.2-0.6-0.3-1.1s-0.4-1-0.7-1.4c-0.3-0.5-0.8-0.9-1.4-1.3c-0.6-0.4-1.4-0.6-2.5-0.6h-3.1v8.6h3.5
				c0.4,0,0.8-0.1,1-0.3c0.2-0.2,0.4-0.4,0.6-0.6s0.2-0.5,0.3-0.8c0.1-0.3,0.1-0.6,0.1-0.8v5.3c0-0.2-0.1-0.5-0.1-0.8
				s-0.2-0.6-0.3-0.8c-0.1-0.3-0.3-0.5-0.6-0.6c-0.2-0.2-0.6-0.3-1-0.3h-3.5v7.3c0,0.5,0,0.9,0.1,1.2c0,0.3,0.1,0.5,0.3,0.7
				s0.4,0.3,0.7,0.3c0.3,0,0.8,0.1,1.4,0.1h1c1,0,1.9-0.2,2.5-0.5s1.1-0.8,1.4-1.3s0.6-1,0.7-1.5s0.2-0.8,0.3-1L149.1,267.8z"/>
			<path class="st0" d="M158.5,265.2c0,0.6,0.1,1,0.1,1.3c0.1,0.3,0.2,0.6,0.4,0.8s0.4,0.3,0.6,0.4c0.2,0.1,0.5,0.1,0.8,0.2h-6.2
				c0.3,0,0.6-0.1,0.8-0.2s0.5-0.2,0.6-0.4s0.3-0.4,0.4-0.8c0.1-0.3,0.1-0.8,0.1-1.3v-16h0c-1,0-1.9,0.2-2.5,0.6
				c-0.6,0.4-1.1,0.8-1.4,1.3c-0.3,0.5-0.6,1-0.7,1.4s-0.2,0.8-0.3,1.1l0.8-4.6h10.5l0.8,4.6c-0.1-0.2-0.2-0.6-0.3-1.1
				s-0.4-1-0.7-1.4s-0.8-0.9-1.4-1.3s-1.4-0.6-2.5-0.6h0L158.5,265.2L158.5,265.2z"/>
			<path class="st0" d="M169.1,265.2c0,0.6,0.1,1,0.1,1.3c0.1,0.3,0.2,0.6,0.4,0.8s0.4,0.3,0.6,0.4c0.2,0.1,0.5,0.1,0.8,0.2H165
				c0.3,0,0.6-0.1,0.8-0.2s0.5-0.2,0.6-0.4s0.3-0.4,0.4-0.8c0.1-0.3,0.1-0.8,0.1-1.3v-13.6c0-0.6-0.1-1-0.1-1.3
				c-0.1-0.3-0.2-0.6-0.4-0.8s-0.4-0.3-0.6-0.4c-0.2-0.1-0.5-0.1-0.8-0.2h6.2c-0.3,0-0.6,0.1-0.8,0.2s-0.5,0.2-0.6,0.4
				c-0.2,0.2-0.3,0.4-0.4,0.8c-0.1,0.3-0.1,0.8-0.1,1.3V265.2z"/>
			<path class="st0" d="M177.2,265.2c0,0.6,0.1,1,0.1,1.3c0.1,0.3,0.2,0.6,0.4,0.8s0.4,0.3,0.6,0.4c0.2,0.1,0.5,0.1,0.8,0.2h-6.2
				c0.3,0,0.6-0.1,0.8-0.2s0.5-0.2,0.6-0.4s0.3-0.4,0.4-0.8c0.1-0.3,0.1-0.8,0.1-1.3v-13.6c0-0.6-0.1-1-0.1-1.3
				c-0.1-0.3-0.2-0.6-0.4-0.8s-0.4-0.3-0.6-0.4c-0.2-0.1-0.5-0.1-0.8-0.2h6.2c-0.3,0-0.6,0.1-0.8,0.2s-0.5,0.2-0.6,0.4
				c-0.2,0.2-0.3,0.4-0.4,0.8c-0.1,0.3-0.1,0.8-0.1,1.3V265.2z M195,270.3c-0.6,0.2-1.2,0.3-2,0.4c-0.7,0.1-1.5,0.2-2.2,0.2
				c-0.9,0-1.7-0.1-2.6-0.2s-1.7-0.4-2.6-0.8c-0.8-0.4-1.6-0.9-2.3-1.5s-1.4-1.4-1.9-2.4l-3.9-6.7l0,0h0l4.7-7.2c1.3-2,1.3-3-0.1-3
				h4.4c-0.3,0-0.6,0.1-0.9,0.2s-0.6,0.3-0.9,0.5c-0.3,0.2-0.6,0.5-1,0.9c-0.3,0.4-0.7,0.9-1.1,1.4l-3.7,5.6c0.8,1.4,1.6,2.7,2.4,4
				c0.8,1.3,1.6,2.7,2.5,4c0.6,1,1.3,1.8,2,2.4s1.5,1.1,2.2,1.5s1.5,0.6,2.3,0.8c0.8,0.1,1.5,0.2,2.2,0.2c0.5,0,0.9,0,1.3-0.1
				S194.6,270.3,195,270.3L195,270.3z"/>
			<path class="st0" d="M210.9,270.3c-0.6,0.2-1.1,0.3-1.8,0.4s-1.3,0.1-2,0.1c-1.1,0-2.2-0.1-3.4-0.4s-2.2-0.8-3.3-1.5
				c-1.1-0.7-2-1.6-2.9-2.8s-1.6-2.6-2.1-4.4h-5.9l-0.5,1.6c-0.3,1-0.5,1.9-0.6,2.4c0,0.6,0,1,0.2,1.3s0.4,0.5,0.8,0.5
				s0.8,0.1,1.2,0.2h-5.7c0.6,0,1-0.1,1.4-0.3s0.7-0.3,1-0.7s0.5-0.8,0.8-1.4c0.2-0.6,0.5-1.4,0.9-2.4l4.6-14.5h0.1l4,12.5
				c0.6,1.9,1.3,3.4,2.2,4.6c0.9,1.2,1.8,2.2,2.8,2.9s2,1.2,3,1.5s2,0.4,2.9,0.4c0.5,0,0.9,0,1.3-0.1s0.8-0.1,1.2-0.2L210.9,270.3z
				 M189.6,261.5h5.8l-2.9-9.4L189.6,261.5z"/>
		</g>
	</g>
</g>
<g>
	<g>
		<linearGradient id="SVGID_1_" gradientUnits="userSpaceOnUse" x1="117.6734" y1="63.4669" x2="162.809" y2="26.0063">
			<stop  offset="0" style="stop-color:#AD8454"/>
			<stop  offset="0.45" style="stop-color:#FBC37F"/>
			<stop  offset="0.9725" style="stop-color:#AD8454"/>
		</linearGradient>
		<path class="st1" d="M156.6,40.9c-0.2-8.4-3-16-5.1-21.5c0,0-6.3-17.7-12.8-15.1c-3.2,1.3-14.9,15.9-14.5,36.6
			c0.4,18.2,10.6,30,13.3,33c-0.7,1-1.2,2.3-1.5,3.8c-1.5-1-2.9-1.4-3.9-0.8c-0.8,0.4-1.2,1.3-1.3,2.5c3.2-1.3,6.8-2,10.4-2
			c1.1,0,2.3,0.1,3.4,0.2c-0.3-1.5-0.8-2.8-1.5-3.8C146.9,69.8,156.9,57.3,156.6,40.9z M141,73c0.3-3.7,0.6-9.5,0.6-16.1
			c0-11.1-0.9-20.1-0.9-20.1s-0.9,9-0.9,20.1c0,6.6,0.3,12.5,0.6,16.1c-0.5,0.1-1,0.4-1.4,0.8c-2.9-3.4-11.1-14.3-12-30.6
			c-0.9-17,5-25.3,7.5-28.9c1-1.3,4.2-4.7,6-4.7c6.4,0,13.6,16.8,13.3,32.6c-0.1,5.5-1.3,17.8-11.3,31.6C142,73.4,141.5,73.1,141,73
			z M148.7,77c-1-0.6-2.4-0.2-3.8,0.8c0.7,0.1,1.4,0.2,2.1,0.3c1,0.2,1.9,0.4,2.8,0.7C149.6,77.9,149.2,77.3,148.7,77z"/>
	</g>
	<g>
		
			<linearGradient id="SVGID_00000178201292479028968190000005336183714081890213_" gradientUnits="userSpaceOnUse" x1="95.7149" y1="62.3812" x2="121.5619" y2="40.9292">
			<stop  offset="0" style="stop-color:#AD8454"/>
			<stop  offset="0.45" style="stop-color:#FBC37F"/>
			<stop  offset="0.9725" style="stop-color:#AD8454"/>
		</linearGradient>
		<path style="fill:url(#SVGID_00000178201292479028968190000005336183714081890213_);" d="M133.8,77.9c-0.8,0-1.5,0.5-2.2,1.4
			c1.1-0.4,2.2-0.8,3.4-1C134.6,78,134.2,77.8,133.8,77.9z M121.6,43c-4.5-7-10.9-12-15.6-15.7c0,0-14.6-11.8-18.8-6.2
			c-2.1,2.8-4.4,21.4,6.9,38.8c9.9,15.3,24.8,20,28.7,21.2c0,0.9,0.1,1.9,0.4,3c2.1-1.7,4.4-3.1,6.9-4.2c-0.8-0.8-1.7-1.3-2.5-1.7
			C128.5,72.7,130.5,56.8,121.6,43z M126.4,78.4c-0.6-0.2-1.2-0.2-1.7,0c-1.7-3.3-4.5-8.4-7.9-14.1c-5.6-9.2-11-16.2-11.3-16.6
			c0.2,0.5,4.1,8.4,9.7,17.6c3.5,5.6,6.8,10.4,9,13.4c-0.4,0.3-0.6,0.8-0.8,1.5c-14.5-6.6-22.1-15.3-25.5-20
			c-2.5-3.4-4.2-6.6-4.4-7.1c-0.9-1.9-3.9-8-4.6-16.6c-0.4-4.3-0.9-9.6,1.9-11.5c0.6-0.4,1.1-0.5,1.5-0.6c1.6-0.4,3.8-0.3,8.2,2.6
			c3.8,2.5,5.9,4.7,5.9,4.7c7,6.4,10.6,9.5,13.8,14.9C128,60,127,73.6,126.4,78.4z M119.8,86.5c-0.2,0.3-0.3,0.7-0.2,1.1
			c0.7-0.9,1.5-1.7,2.3-2.4C120.9,85.4,120.1,85.8,119.8,86.5z"/>
	</g>
	<g>
		
			<linearGradient id="SVGID_00000082355609847514056410000002204540149999328926_" gradientUnits="userSpaceOnUse" x1="70.9255" y1="88.9135" x2="102.8143" y2="62.447">
			<stop  offset="0" style="stop-color:#AD8454"/>
			<stop  offset="0.45" style="stop-color:#FBC37F"/>
			<stop  offset="0.9725" style="stop-color:#AD8454"/>
		</linearGradient>
		<path style="fill:url(#SVGID_00000082355609847514056410000002204540149999328926_);" d="M118.9,86.2c-1,0.6-1.5,2-1.3,3.8
			c-1.5-0.5-2.9-0.7-4-0.7c-1.7-5.2-7.3-20.2-21.6-28.3c-7.3-4.1-15.3-5.5-21.1-6.6c0,0-18.4-3.7-19.5,3.3
			c-0.5,3.4,6.1,21,24.1,31.1c15.9,8.9,31.2,6.2,35.2,5.4c0.5,1.1,1.4,2.2,2.5,3.2c-1.6,0.7-2.6,1.8-2.7,2.9c0,1.1,0.8,2,2.2,2.8
			c0.8-5.9,3.2-11.2,6.9-15.5c0.4-0.5,0.9-1,1.4-1.5C120.2,85.8,119.4,85.8,118.9,86.2z M112,91.2c-3.1-2.2-8.1-5.5-14-9
			c-9.8-5.8-18.3-9.7-18.3-9.7s7.5,5.5,17.3,11.3c5.8,3.5,11.2,6.3,14.6,8c-0.2,0.5-0.2,1,0,1.7c-5.4,0.5-18.5,1.1-32.6-6.2
			c-11.6-6-18.2-14.4-21.3-18.8c-0.9-1.9-2.7-6.1-0.9-8.9c2.5-3.9,10.3-2.6,15.9-1.7c4.1,0.7,11.4,2,19.6,7.1
			c13.7,8.4,19.3,21,21.1,25.6C112.8,90.6,112.3,90.8,112,91.2z"/>
	</g>
	<g>
		
			<linearGradient id="SVGID_00000055694086289363905910000010038243832604641718_" gradientUnits="userSpaceOnUse" x1="55.6848" y1="129.7351" x2="106.2633" y2="87.7568">
			<stop  offset="0" style="stop-color:#AD8454"/>
			<stop  offset="0.45" style="stop-color:#FBC37F"/>
			<stop  offset="0.9725" style="stop-color:#AD8454"/>
		</linearGradient>
		<path style="fill:url(#SVGID_00000055694086289363905910000010038243832604641718_);" d="M112.4,106.9c0-0.9,0-1.8,0.1-2.7
			c-1.3,0.3-2.4,0.8-3.3,1.4c-4.1-3.6-16.6-13.7-33.1-13.3c-8.4,0.2-16,3-21.5,5.1c0,0-17.7,6.3-15.1,12.8
			c1.3,3.2,15.9,14.9,36.6,14.5c18.2-0.4,30-10.6,33-13.3c1,0.6,2.2,1.1,3.7,1.5C112.6,110.8,112.4,108.9,112.4,106.9z M93.2,109.1
			c6.6,0,12.5-0.3,16.1-0.6c0.1,0.5,0.4,1,0.8,1.4c-3.1,2.7-14.1,11.4-30.6,12c-15.7,0.5-26.8-6.5-30.2-9c-1.1-0.9-2.4-2.1-2.5-3.7
			c-0.3-4.6,8.9-8.4,13.1-10.2c4.1-1.7,10.7-4.5,19.6-4.4c15.9,0,27.1,8.8,30.6,11.8c-0.5,0.4-0.7,0.9-0.8,1.4
			c-3.7-0.3-9.5-0.6-16.1-0.6c-11.1,0-20.1,0.9-20.1,0.9S82.2,109.1,93.2,109.1z M112.3,100.2c-0.5,0.8-0.3,2,0.3,3.2
			c0-0.1,0-0.2,0-0.3c0.2-1.3,0.4-2.6,0.8-3.8C112.9,99.4,112.5,99.7,112.3,100.2z M113,112.8c-1,1.4-1.3,2.8-0.7,3.8
			c0.4,0.7,1.2,1.1,2.2,1.2C113.9,116.2,113.4,114.6,113,112.8z"/>
	</g>
	
		<linearGradient id="SVGID_00000024689575437471525780000004422845149046174893_" gradientUnits="userSpaceOnUse" x1="57.4541" y1="163.5887" x2="116.4861" y2="114.5947">
		<stop  offset="0" style="stop-color:#AD8454"/>
		<stop  offset="0.45" style="stop-color:#FBC37F"/>
		<stop  offset="0.9725" style="stop-color:#AD8454"/>
	</linearGradient>
	<path style="fill:url(#SVGID_00000024689575437471525780000004422845149046174893_);" d="M119.7,126.3c-0.1,1.6,0.3,2.9,1.2,3.5
		c0.7,0.4,1.5,0.4,2.4,0C122,128.7,120.8,127.6,119.7,126.3z M112.9,121.6c-5.3-1.1-21.2-3.8-35.3,4.6c-7.2,4.2-12.4,10.5-16.2,15
		c0,0-12.4,14.2-6.9,18.6c2.7,2.2,21.2,5.2,39-5.4c15.6-9.3,21-24,22.2-27.8c1.1,0.1,2.4-0.1,3.8-0.5c-1.8-2.1-3.3-4.5-4.5-7.1
		C114,119.8,113.3,120.7,112.9,121.6z M94,150.7c-8.6,5.1-16.8,6.6-21.6,7.1c-6.3,1.5-12.1,1-13.8-1.9c-2.1-3.5,2.5-9.5,6.2-14.4
		c2.7-3.6,7.4-9.6,15.8-14.2c14.2-7.8,28.5-5.7,33.2-4.8c-0.2,0.6-0.2,1.2,0,1.7c-3.4,1.6-8.7,4.2-14.6,7.5
		c-9.5,5.4-16.9,10.5-17.3,10.8c0.5-0.2,8.7-3.8,18.2-9.2c5.9-3.3,10.9-6.5,14-8.6c0.3,0.4,0.8,0.7,1.4,0.8
		C113.5,130.3,107.7,142.5,94,150.7z M114.6,118c0,0,0-0.1-0.1-0.1c-0.5-1.2-0.9-2.4-1.2-3.7c-0.3,0.4-0.5,0.8-0.5,1.3
		C112.8,116.4,113.5,117.3,114.6,118z"/>
	<g>
		
			<linearGradient id="SVGID_00000057864246897990947630000013785688018313837981_" gradientUnits="userSpaceOnUse" x1="83.2558" y1="185.9642" x2="141.9253" y2="137.2709">
			<stop  offset="0" style="stop-color:#AD8454"/>
			<stop  offset="0.45" style="stop-color:#FBC37F"/>
			<stop  offset="0.9725" style="stop-color:#AD8454"/>
		</linearGradient>
		<path style="fill:url(#SVGID_00000057864246897990947630000013785688018313837981_);" d="M133,135c-2.8-0.9-5.5-2.2-7.9-3.8
			c-0.4,1.3-0.5,2.6-0.5,3.6c-5.2,1.8-20.1,7.7-28,22.1c-4,7.4-5.3,15.4-6.2,21.2c0,0-3.3,18.5,3.6,19.5c3.4,0.5,20.9-6.4,30.7-24.7
			c8.6-16,5.7-31.3,4.8-35.3c1-0.5,2.2-1.4,3.2-2.6c0.8,1.6,1.8,2.6,3,2.6c0.9,0,1.7-0.6,2.3-1.6C136.4,135.8,134.7,135.5,133,135z
			 M124.4,168.9c-7.2,14.3-22.2,26.4-28,23.3c-3.3-1.8-3-8.5-2.7-14.9c0.5-11.3,5.1-19.4,6.3-21.4c8.2-13.9,21.5-19.2,25.9-20.8
			c0.2,0.6,0.4,1.1,0.8,1.4c-2,3-5.2,8-8.5,13.7c-5.5,9.6-9.1,17.9-9.1,17.9s5.3-7.3,10.8-17c3.3-5.7,5.9-11,7.5-14.3
			c0.5,0.2,1,0.2,1.7,0C129.9,143.2,130.9,155.9,124.4,168.9z M124.6,130.8c-0.4-0.3-0.9-0.6-1.3-1c-0.7-0.6-1.4-1.2-2-1.8
			c-0.1,0.6,0,1.1,0.2,1.5C122,130.3,123.2,130.8,124.6,130.8z"/>
	</g>
	<g>
		
			<linearGradient id="SVGID_00000085960189944061537780000017250618392577433737_" gradientUnits="userSpaceOnUse" x1="163.4809" y1="171.6409" x2="189.0893" y2="150.3869">
			<stop  offset="0" style="stop-color:#AD8454"/>
			<stop  offset="0.45" style="stop-color:#FBC37F"/>
			<stop  offset="0.9725" style="stop-color:#AD8454"/>
		</linearGradient>
		<path style="fill:url(#SVGID_00000085960189944061537780000017250618392577433737_);" d="M190.2,153.3
			c-10.9-14.5-26.1-18.2-30.1-19.1c0-1.2-0.4-2.5-1-4c1.8,0,3.1-0.5,3.6-1.6c0.2-0.6,0.2-1.2,0-1.9c-2.9,3.3-6.6,5.8-10.8,7.5
			c-1.8,0.7-3.8,1.3-5.8,1.6c0.9,1.5,2,2.5,3.2,2.4c1.2-0.1,2.1-1.2,2.7-2.9c1.1,1,2.3,1.8,3.4,2.2c-0.5,5.4-1.4,21.5,8.4,34.6
			c5,6.7,11.8,11.2,16.7,14.5c0,0,15.4,10.8,19.2,4.8C201.6,188.6,202.7,169.8,190.2,153.3z M196.3,187.7c-3.7,3-12.5-2.6-16.7-5.3
			c-3.3-2.1-9.5-6.2-14.8-13.9c-8.9-12.8-8.8-26.4-8.5-31.2c0.6,0.1,1.2,0.1,1.6-0.2c1.9,3.1,5.1,8.1,8.9,13.5
			c6.5,9,12.5,15.8,12.5,15.8s-4.5-7.8-10.9-16.9c-3.9-5.4-7.5-9.9-9.9-12.8c0.4-0.4,0.6-0.9,0.7-1.5c4.5,1.2,17.4,5.3,27.4,17.8
			c7.8,9.9,10,20,10.7,24.9C197.9,180.2,198.9,185.6,196.3,187.7z"/>
	</g>
	<g>
		
			<linearGradient id="SVGID_00000010998738938302555340000000453467056950285245_" gradientUnits="userSpaceOnUse" x1="122.9015" y1="186.5701" x2="167.0718" y2="149.9105">
			<stop  offset="0" style="stop-color:#AD8454"/>
			<stop  offset="0.45" style="stop-color:#FBC37F"/>
			<stop  offset="0.9725" style="stop-color:#AD8454"/>
		</linearGradient>
		<path style="fill:url(#SVGID_00000010998738938302555340000000453467056950285245_);" d="M159.8,172.9
			c-1-18.1-11.5-29.7-14.4-32.6c0.6-1,1.1-2.3,1.4-3.9c1.5,1,2.9,1.3,3.9,0.7c0.8-0.5,1.2-1.6,1.2-2.9c-3.3,1.3-6.8,2-10.6,2
			c-2.9,0-5.7-0.4-8.4-1.2c0.1,1.3,0.5,2.2,1.3,2.7c1,0.5,2.5,0.2,3.9-0.9c0.4,1.5,0.9,2.8,1.6,3.8c-3.5,4.2-13.1,17-12.3,33.4
			c0.4,8.3,3.5,15.9,5.7,21.3c0,0,6.8,17.6,13.2,14.8C149.7,208.6,161,193.6,159.8,172.9z M148.8,202.6c-0.8,1-1.9,2.1-3.3,2.2
			c-4.7,0.3-8.8-10.2-10.6-14.8c-2-5-4.4-11.2-4.5-19.8c-0.2-15.6,7.4-26.8,10.3-30.7c0.5,0.4,1,0.7,1.5,0.8
			c-0.2,3.7-0.3,9.5-0.1,16.1c0.3,11.1,1.6,20,1.6,20s0.7-9,0.3-20.1c-0.2-6.6-0.7-12.5-1.1-16.1c0.5-0.1,1-0.4,1.4-0.9
			c3.1,3.8,10.8,14.3,12.2,30C157.8,186.1,151.2,198.5,148.8,202.6z"/>
	</g>
	
		<linearGradient id="SVGID_00000008851541947308428060000002254093746028455822_" gradientUnits="userSpaceOnUse" x1="180.2886" y1="150.5114" x2="214.2466" y2="122.3277">
		<stop  offset="0" style="stop-color:#AD8454"/>
		<stop  offset="0.45" style="stop-color:#FBC37F"/>
		<stop  offset="0.9725" style="stop-color:#AD8454"/>
	</linearGradient>
	<path style="fill:url(#SVGID_00000008851541947308428060000002254093746028455822_);" d="M207.6,123.3c-16.3-8.1-31.5-4.7-35.4-3.7
		c-0.6-1-1.5-2.1-2.7-3.1c1.6-0.8,2.5-1.9,2.5-3.1c0-1-0.7-1.8-1.9-2.4c-0.9,6-3.5,11.4-7.4,15.7c-0.4,0.4-0.8,0.8-1.2,1.2
		c1,0.5,2,0.5,2.7,0c1-0.6,1.4-2,1.1-3.8c1.5,0.4,2.9,0.6,4.1,0.5c1.9,5.1,8.3,19.9,23,27.2c7.5,3.8,15.5,4.8,21.4,5.6
		c0,0,18.6,2.8,19.4-4.2C233.5,149.8,226.1,132.6,207.6,123.3z M227.1,150.8c-2,3.9-10,3.2-15.8,2.6c-5.2-0.5-12.1-1.1-19.8-5.2
		c-14.2-7.6-19.7-20.9-21.2-24.8c0.6-0.2,1.1-0.5,1.4-0.9c3.1,2,8.1,5,14,8.1c9.5,5,17.7,8.4,18.2,8.5c-0.4-0.3-7.8-5.2-17.3-10.2
		c-5.8-3.1-11.2-5.5-14.5-7c0.2-0.5,0.1-1-0.1-1.7c4.3-0.9,17.5-3.1,32,3.6c12.9,6,19.5,15.7,21.9,19.6
		C227,145.4,228.3,148.5,227.1,150.8z"/>
	
		<linearGradient id="SVGID_00000043439022712153077820000010655828410627460753_" gradientUnits="userSpaceOnUse" x1="177.2536" y1="125.0356" x2="229.8038" y2="81.4212">
		<stop  offset="0" style="stop-color:#AD8454"/>
		<stop  offset="0.45" style="stop-color:#FBC37F"/>
		<stop  offset="0.9725" style="stop-color:#AD8454"/>
	</linearGradient>
	<path style="fill:url(#SVGID_00000043439022712153077820000010655828410627460753_);" d="M243.8,101.5
		c-1.4-3.2-16.4-14.4-37.1-13.2c-18.1,1.1-29.6,11.6-32.5,14.5c-1-0.6-2.3-1.1-3.9-1.4c1-1.5,1.3-2.9,0.6-3.9
		c-0.5-0.7-1.3-1.1-2.5-1.2c1.2,3.2,1.9,6.8,1.9,10.5c0,1.4-0.1,2.8-0.3,4.2c-0.2,1.5-0.5,2.9-0.9,4.3c1.1-0.1,1.9-0.6,2.3-1.3
		c0.5-1,0.2-2.5-0.9-3.9c1.5-0.4,2.8-1,3.8-1.6c4.2,3.5,17.1,13.1,33.5,12.2c8.3-0.5,15.9-3.6,21.3-5.8
		C229.1,114.8,246.7,107.9,243.8,101.5z M205.1,118.8c-14.8,0-25.8-7.3-30.6-11c0.4-0.5,0.7-1,0.8-1.5c3.7,0.1,9.5,0.3,16.1,0
		c11.1-0.4,20-1.6,20-1.6s-9-0.6-20.1-0.2c-6.6,0.2-12.5,0.8-16.1,1.2c-0.1-0.5-0.4-1-0.9-1.4c4.7-4.1,15.1-12,29.8-13.1
		c15.5-1.2,34.1,5.1,34.4,12.1C239,110.2,221.1,118.8,205.1,118.8z"/>
	<g>
		
			<linearGradient id="SVGID_00000173843397276238169580000008130130013059427478_" gradientUnits="userSpaceOnUse" x1="144.722" y1="75.3493" x2="202.4005" y2="27.4785">
			<stop  offset="0" style="stop-color:#AD8454"/>
			<stop  offset="0.45" style="stop-color:#FBC37F"/>
			<stop  offset="0.9725" style="stop-color:#AD8454"/>
		</linearGradient>
		<path style="fill:url(#SVGID_00000173843397276238169580000008130130013059427478_);" d="M189.6,16.8c-3.4-0.4-20.5,6.8-30.2,25.1
			c-8.5,16.1-5.6,31.2-4.8,35.2c-0.9,0.5-1.9,1.3-2.9,2.3c2.6,1,5,2.4,7.2,4.1c0.4-1.4,0.6-2.6,0.5-3.7c5.1-1.9,19.7-8,27.4-22.5
			c3.9-7.4,5.2-15.4,6.2-21.2C193.1,36.1,196.4,17.6,189.6,16.8z M189.9,38.5c-1.3,10.5-5.6,18-6.5,19.5
			c-8,13.7-20.2,19.7-24.7,21.6c-0.1-0.6-0.4-1.1-0.8-1.4c2-3.1,5.2-8.2,8.5-14.1c5.3-9.5,8.9-17.8,9.1-18.3
			c-0.3,0.4-5.4,7.8-10.8,17.4c-3.3,5.9-5.9,11.2-7.5,14.6c-0.5-0.2-1-0.1-1.6,0.1c-0.6-6.2-0.9-18.8,5.5-32.3
			c3.5-7.6,8-13.1,11.6-16.8c5.5-5.4,11.7-7.8,15.1-5.8C191.5,25.5,190.7,32.6,189.9,38.5z M159.3,83.8c0.2,0.2,0.5,0.4,0.7,0.6
			c0.8,0.7,1.6,1.5,2.4,2.2c0.1,0.1,0.2,0.2,0.3,0.4c0.2-0.7,0.2-1.4-0.1-2C162.1,84.1,160.9,83.7,159.3,83.8z M148.6,77.2
			c-0.6,0-1.1,0.3-1.7,0.8c1.5,0.3,2.9,0.7,4.3,1.2C150.6,78,149.6,77.2,148.6,77.2z"/>
	</g>
	
		<linearGradient id="SVGID_00000019651524985642531230000000615303933175665796_" gradientUnits="userSpaceOnUse" x1="167.2282" y1="96.9027" x2="226.0042" y2="48.1209">
		<stop  offset="0" style="stop-color:#AD8454"/>
		<stop  offset="0.45" style="stop-color:#FBC37F"/>
		<stop  offset="0.9725" style="stop-color:#AD8454"/>
	</linearGradient>
	<path style="fill:url(#SVGID_00000019651524985642531230000000615303933175665796_);" d="M226.6,52.4c-2.8-2.1-21.4-4.5-38.8,6.7
		c-15.3,9.8-20.1,24.7-21.3,28.6c-0.9,0-1.9,0.1-2.9,0.4c1.7,2.1,3.1,4.3,4.2,6.8c0.7-0.8,1.2-1.6,1.6-2.4c5.4,0.9,21.3,3,35.2-5.8
		c7-4.5,12.1-10.9,15.7-15.5C220.3,71.2,232.2,56.6,226.6,52.4z M216.3,70.6c-3.4,4.2-7.7,9.4-15.1,13.8c-13.6,8-27.2,6.9-32,6.3
		c0.2-0.6,0.2-1.2,0-1.7c3.3-1.7,8.5-4.5,14.2-8c9.6-5.8,16.8-11.4,16.8-11.4s-8.2,3.9-17.8,9.8c-5.7,3.5-10.6,6.8-13.6,9
		c-0.3-0.4-0.8-0.7-1.5-0.8c1.8-4.6,7.2-16.5,20.3-25.6c13.9-9.6,28-10,32.9-10c1.3,0.2,2.8,0.6,3.6,1.8
		C226.7,57.8,219.5,66.7,216.3,70.6z M168.6,96.7c0.4,1,0.7,1.9,0.9,2.9c0.2-0.3,0.2-0.6,0.2-0.9C169.7,97.9,169.3,97.3,168.6,96.7z
		 M161.1,84.6c-0.3-0.2-0.7-0.3-1.1-0.3c0.8,0.7,1.6,1.5,2.4,2.2C162.2,85.7,161.8,85,161.1,84.6z"/>
	
		<linearGradient id="SVGID_00000136394147882186087610000001884418470325317523_" gradientUnits="userSpaceOnUse" x1="124.799" y1="131.0276" x2="125.2391" y2="130.6624">
		<stop  offset="0" style="stop-color:#AD8454"/>
		<stop  offset="0.45" style="stop-color:#FBC37F"/>
		<stop  offset="0.9725" style="stop-color:#AD8454"/>
	</linearGradient>
	<path style="fill:url(#SVGID_00000136394147882186087610000001884418470325317523_);" d="M125.3,130.7c0,0.1-0.1,0.3-0.1,0.4
		c-0.2-0.1-0.4-0.3-0.6-0.4C124.8,130.8,125,130.7,125.3,130.7z"/>
	
		<linearGradient id="SVGID_00000031918324084884392770000008181176186987819920_" gradientUnits="userSpaceOnUse" x1="119.5662" y1="126.1718" x2="119.7379" y2="126.0293">
		<stop  offset="0" style="stop-color:#AD8454"/>
		<stop  offset="0.45" style="stop-color:#FBC37F"/>
		<stop  offset="0.9725" style="stop-color:#AD8454"/>
	</linearGradient>
	<path style="fill:url(#SVGID_00000031918324084884392770000008181176186987819920_);" d="M119.7,126c0,0.1,0,0.2,0,0.3
		c-0.1-0.1-0.1-0.2-0.2-0.2C119.5,126,119.6,126,119.7,126z"/>
	
		<linearGradient id="SVGID_00000025444631195970184380000000795944026899095992_" gradientUnits="userSpaceOnUse" x1="112.9695" y1="112.7949" x2="113.0758" y2="112.7066">
		<stop  offset="0" style="stop-color:#AD8454"/>
		<stop  offset="0.45" style="stop-color:#FBC37F"/>
		<stop  offset="0.9725" style="stop-color:#AD8454"/>
	</linearGradient>
	<path style="fill:url(#SVGID_00000025444631195970184380000000795944026899095992_);" d="M113.1,112.7c0,0-0.1,0.1-0.1,0.1
		c0-0.1,0-0.1,0-0.1C113,112.7,113,112.7,113.1,112.7z"/>
	
		<linearGradient id="SVGID_00000075158821245394882000000005881273246019599496_" gradientUnits="userSpaceOnUse" x1="144.7501" y1="77.7418" x2="144.8112" y2="77.6911">
		<stop  offset="0" style="stop-color:#AD8454"/>
		<stop  offset="0.45" style="stop-color:#FBC37F"/>
		<stop  offset="0.9725" style="stop-color:#AD8454"/>
	</linearGradient>
	<path style="fill:url(#SVGID_00000075158821245394882000000005881273246019599496_);" d="M144.8,77.7
		C144.8,77.7,144.8,77.7,144.8,77.7C144.8,77.7,144.8,77.7,144.8,77.7C144.8,77.7,144.8,77.7,144.8,77.7z"/>
	
		<linearGradient id="SVGID_00000168832876632447656600000000286285948490671791_" gradientUnits="userSpaceOnUse" x1="151.3562" y1="79.5442" x2="151.6635" y2="79.2892">
		<stop  offset="0" style="stop-color:#AD8454"/>
		<stop  offset="0.45" style="stop-color:#FBC37F"/>
		<stop  offset="0.9725" style="stop-color:#AD8454"/>
	</linearGradient>
	<path style="fill:url(#SVGID_00000168832876632447656600000000286285948490671791_);" d="M151.3,79.3c0.2,0.1,0.3,0.1,0.5,0.2
		c-0.1,0.1-0.2,0.2-0.3,0.3C151.5,79.6,151.4,79.4,151.3,79.3z"/>
	
		<linearGradient id="SVGID_00000101783673780609828140000010873787588273640884_" gradientUnits="userSpaceOnUse" x1="158.9043" y1="83.8809" x2="159.1953" y2="83.6394">
		<stop  offset="0" style="stop-color:#AD8454"/>
		<stop  offset="0.45" style="stop-color:#FBC37F"/>
		<stop  offset="0.9725" style="stop-color:#AD8454"/>
	</linearGradient>
	<path style="fill:url(#SVGID_00000101783673780609828140000010873787588273640884_);" d="M159.3,83.8c-0.2,0-0.3,0-0.5,0
		c0-0.1,0.1-0.2,0.1-0.3C159.1,83.6,159.2,83.7,159.3,83.8z"/>
	<g>
		<g>
			<g>
				
					<linearGradient id="SVGID_00000021110324717065923970000007486937518657424518_" gradientUnits="userSpaceOnUse" x1="138.5607" y1="161.9384" x2="145.115" y2="161.9384" gradientTransform="matrix(1 0 0 -1 0 284.3937)">
					<stop  offset="0" style="stop-color:#714821"/>
					<stop  offset="1" style="stop-color:#BC987D"/>
				</linearGradient>
				<path style="fill:url(#SVGID_00000021110324717065923970000007486937518657424518_);" d="M141.8,123.3c-1.8,0-2.9-0.7-3-0.8
					c-0.2-0.2-0.3-0.5-0.1-0.7c0.2-0.2,0.5-0.3,0.7-0.1c0.1,0.1,2.2,1.4,5,0c0.2-0.1,0.6,0,0.7,0.2s0,0.6-0.2,0.7
					C143.7,123.1,142.6,123.3,141.8,123.3z"/>
			</g>
			<g>
				
					<linearGradient id="SVGID_00000165948215521889947390000010203219457582759870_" gradientUnits="userSpaceOnUse" x1="139.4066" y1="171.5004" x2="144.5771" y2="171.5004" gradientTransform="matrix(1 0 0 -1 0 284.3937)">
					<stop  offset="0" style="stop-color:#714821"/>
					<stop  offset="1" style="stop-color:#BC987D"/>
				</linearGradient>
				<path style="fill:url(#SVGID_00000165948215521889947390000010203219457582759870_);" d="M141.9,113.7c-1.4,0-2.2-0.7-2.3-0.7
					c-0.2-0.2-0.3-0.5-0.1-0.7s0.5-0.3,0.7-0.1c0.1,0.1,1.4,1.1,3.6-0.1c0.2-0.1,0.6,0,0.7,0.2s0,0.6-0.2,0.7
					C143.4,113.5,142.6,113.7,141.9,113.7z"/>
			</g>
			<g>
				
					<linearGradient id="SVGID_00000158708249121478381530000006179465488360586136_" gradientUnits="userSpaceOnUse" x1="121.91" y1="184.0992" x2="136.02" y2="184.0992" gradientTransform="matrix(1 0 0 -1 0 284.3937)">
					<stop  offset="0" style="stop-color:#714821"/>
					<stop  offset="1" style="stop-color:#BC987D"/>
				</linearGradient>
				<path style="fill:url(#SVGID_00000158708249121478381530000006179465488360586136_);" d="M136,102.2c0,0-5,1.1-11.1-4.3l-3,0.4
					C121.9,98.3,127.7,104.6,136,102.2z"/>
			</g>
			<g>
				
					<linearGradient id="SVGID_00000013899523150959436130000006595189804797522092_" gradientUnits="userSpaceOnUse" x1="124.7038" y1="187.8598" x2="138.8015" y2="187.8598" gradientTransform="matrix(1 0 0 -1 0 284.3937)">
					<stop  offset="0" style="stop-color:#714821"/>
					<stop  offset="1" style="stop-color:#BC987D"/>
				</linearGradient>
				<path style="fill:url(#SVGID_00000013899523150959436130000006595189804797522092_);" d="M138.3,100c-0.2,0-0.4-0.1-0.5-0.4
					c0,0-1-3-4-4.6c-2.3-1.2-5.1-1.2-8.4-0.1c-0.3,0.1-0.6-0.1-0.7-0.3c-0.1-0.3,0.1-0.6,0.3-0.7c3.6-1.2,6.7-1.1,9.3,0.2
					c3.4,1.7,4.4,5,4.5,5.2c0.1,0.3-0.1,0.6-0.3,0.6C138.4,100,138.3,100,138.3,100z"/>
			</g>
			
				<linearGradient id="SVGID_00000176727119060871622910000017165438027159597738_" gradientUnits="userSpaceOnUse" x1="136" y1="165.5622" x2="147.8" y2="165.5622" gradientTransform="matrix(1 0 0 -1 0 284.3937)">
				<stop  offset="0" style="stop-color:#714821"/>
				<stop  offset="1" style="stop-color:#BC987D"/>
			</linearGradient>
			<path style="fill:url(#SVGID_00000176727119060871622910000017165438027159597738_);" d="M145.2,118c-1.1-0.8-2.5-1.1-3.3,0.7
				c-0.8-1.8-2.3-1.5-3.3-0.7c-0.8,0.6-2.6,1-2.6,1c0.6-0.1,2.2,1,3.4,1.2c1.4,0.3,2.5,0,2.5-0.1c0,0,1,0.3,2.5,0.1
				c1.2-0.2,2.8-1.3,3.4-1.2C147.8,119,146,118.6,145.2,118z"/>
			<g>
				
					<linearGradient id="SVGID_00000059274539116663901020000008346294185439356806_" gradientUnits="userSpaceOnUse" x1="147.76" y1="184.0992" x2="161.87" y2="184.0992" gradientTransform="matrix(1 0 0 -1 0 284.3937)">
					<stop  offset="0" style="stop-color:#714821"/>
					<stop  offset="1" style="stop-color:#BC987D"/>
				</linearGradient>
				<path style="fill:url(#SVGID_00000059274539116663901020000008346294185439356806_);" d="M147.8,102.2c0,0,5,1.1,11.1-4.3l3,0.4
					C161.9,98.3,156.1,104.6,147.8,102.2z"/>
			</g>
			<g>
				
					<linearGradient id="SVGID_00000027591536160940066390000007980706500458382228_" gradientUnits="userSpaceOnUse" x1="144.9885" y1="187.8548" x2="159.0862" y2="187.8548" gradientTransform="matrix(1 0 0 -1 0 284.3937)">
					<stop  offset="0" style="stop-color:#714821"/>
					<stop  offset="1" style="stop-color:#BC987D"/>
				</linearGradient>
				<path style="fill:url(#SVGID_00000027591536160940066390000007980706500458382228_);" d="M145.5,100c-0.1,0-0.1,0-0.1,0
					c-0.3-0.1-0.4-0.4-0.3-0.6c0-0.1,1.1-3.4,4.5-5.2c2.5-1.3,5.6-1.4,9.2-0.2c0.3,0.1,0.4,0.4,0.3,0.7c-0.1,0.3-0.4,0.4-0.6,0.3
					c-3.3-1.1-6.2-1.1-8.5,0.1c-3,1.5-3.9,4.5-4,4.6C145.9,99.8,145.7,100,145.5,100z"/>
			</g>
		</g>
		<g>
			<g>
				
					<linearGradient id="SVGID_00000048502936133705662720000012787881800371063464_" gradientUnits="userSpaceOnUse" x1="125.9139" y1="153.5794" x2="133.1979" y2="153.5794" gradientTransform="matrix(1 0 0 -1 0 284.3937)">
					<stop  offset="0" style="stop-color:#714821"/>
					<stop  offset="1" style="stop-color:#BC987D"/>
				</linearGradient>
				<path style="fill:url(#SVGID_00000048502936133705662720000012787881800371063464_);" d="M131.3,134.9c0.3,0.1,0.6,0.3,0.9,0.4
					c0.2-0.6,0.4-1.1,0.5-1.8c0.7-3.6,0.5-6.7,0.5-6.8c0-0.3-0.3-0.5-0.6-0.5s-0.5,0.3-0.5,0.6C132.1,126.9,132.4,130.8,131.3,134.9
					z"/>
				
					<linearGradient id="SVGID_00000041976848461572055780000011366315302363313342_" gradientUnits="userSpaceOnUse" x1="150.5909" y1="153.7144" x2="157.874" y2="153.7144" gradientTransform="matrix(1 0 0 -1 0 284.3937)">
					<stop  offset="0" style="stop-color:#714821"/>
					<stop  offset="1" style="stop-color:#BC987D"/>
				</linearGradient>
				<path style="fill:url(#SVGID_00000041976848461572055780000011366315302363313342_);" d="M151.5,135.1c0.3-0.2,0.6-0.3,0.9-0.4
					c-1-4-0.8-7.8-0.7-7.8c0-0.3-0.2-0.5-0.5-0.6c-0.3,0-0.5,0.2-0.6,0.5c0,0.1-0.2,3.2,0.5,6.8
					C151.2,134.1,151.4,134.6,151.5,135.1z"/>
			</g>
			
				<linearGradient id="SVGID_00000170974267257113335620000007430743989258108337_" gradientUnits="userSpaceOnUse" x1="118.89" y1="170.4537" x2="164.89" y2="170.4537" gradientTransform="matrix(1 0 0 -1 0 284.3937)">
				<stop  offset="0" style="stop-color:#714821"/>
				<stop  offset="1" style="stop-color:#BC987D"/>
			</linearGradient>
			<path style="fill:url(#SVGID_00000170974267257113335620000007430743989258108337_);" d="M164,96.4C164,96.5,163.9,96.5,164,96.4
				c-0.2,4.2-1.3,14.9-7.8,24.6c-4.9,7.3-13.6,9.3-14.3,9.4c-0.7-0.1-9.4-2.1-14.3-9.4c-6.5-9.7-7.6-20.3-7.8-24.5c0,0,0-0.1,0-0.1
				c-0.3,0.5-0.7,1-0.9,1.5c0.6,8.5,3.4,17,7.9,23.6c5.3,7.9,14.6,9.8,14.9,9.9c0,0,0.1,0,0.1,0c0,0,0,0,0.1,0s0,0,0.1,0
				c0,0,0.1,0,0.1,0c0.4-0.1,9.6-2,14.9-9.9c4.4-6.6,7.3-15.1,7.9-23.6C164.6,97.4,164.3,96.9,164,96.4z"/>
		</g>
	</g>
</g>
</svg>
