<?xml version="1.0" encoding="utf-8"?>
<!-- Generator: Adobe Illustrator 28.0.0, SVG Export Plug-In . SVG Version: 6.00 Build 0)  -->
<svg version="1.1" id="Réteg_1" xmlns="http://www.w3.org/2000/svg" xmlns:xlink="http://www.w3.org/1999/xlink" x="0px" y="0px"
	 viewBox="0 0 755.1 221.4" style="enable-background:new 0 0 755.1 221.4;" xml:space="preserve">
<style type="text/css">
	.st0{fill:#A28043;}
	.st1{fill:url(#SVGID_1_);}
	.st2{fill:url(#SVGID_00000016779968774855468500000016151544511058781832_);}
	.st3{fill:url(#SVGID_00000026138968811246456620000014551975416598572734_);}
	.st4{fill:url(#SVGID_00000100371315414331065060000002774195795290563002_);}
	.st5{fill:url(#SVGID_00000036970581478253122280000016769705019979961223_);}
	.st6{fill:url(#SVGID_00000047748741819935922240000017318039915594808504_);}
	.st7{fill:url(#SVGID_00000116203171660773213210000008364313404682908330_);}
	.st8{fill:url(#SVGID_00000114042217950635895350000003359146550721183393_);}
	.st9{fill:url(#SVGID_00000177485860160914122400000008196430154470411651_);}
	.st10{fill:url(#SVGID_00000145030291374607116650000017022059548663104190_);}
	.st11{fill:url(#SVGID_00000125567123608801018240000016945710175758229393_);}
	.st12{fill:url(#SVGID_00000058558603320039176200000016123424402770907532_);}
	.st13{fill:url(#SVGID_00000160175238093042952770000008458432405226552195_);}
	.st14{fill:url(#SVGID_00000140007043607705273020000006987246358817887903_);}
	.st15{fill:url(#SVGID_00000133528414688567956010000000541442589204440986_);}
	.st16{fill:url(#SVGID_00000078725952925827606120000006222412675769838781_);}
	.st17{fill:url(#SVGID_00000101099848315390383900000013870736131435217305_);}
	.st18{fill:url(#SVGID_00000081624159812659122820000000854438100552466064_);}
	.st19{fill:url(#SVGID_00000111181621155290041980000014900775591770753168_);}
	.st20{fill:url(#SVGID_00000182492332898216569920000011183494289577655193_);}
	.st21{fill:url(#SVGID_00000016053667392377060300000000272272418945726342_);}
	.st22{fill:url(#SVGID_00000114057345997269561650000002459059149929768070_);}
	.st23{fill:url(#SVGID_00000183947438778828310820000014575373293900908475_);}
	.st24{fill:url(#SVGID_00000101823770214706345560000014016453432142154144_);}
	.st25{fill:url(#SVGID_00000114070810308250957240000003931582365849723823_);}
	.st26{fill:url(#SVGID_00000091737028833709404880000007302945476724752280_);}
	.st27{fill:url(#SVGID_00000066515381013327928910000004646390335054501017_);}
	.st28{fill:url(#SVGID_00000147932623522319767670000009514908791590612116_);}
</style>
<g>
	<g>
		<path class="st0" d="M272.8,81.1c0,2.5-0.5,4.8-1.6,6.7c-1.1,1.9-2.5,3.5-4.3,4.8c-1.8,1.3-3.8,2.2-6.2,2.9c-2.3,0.7-4.8,1-7.3,1
			c-3.5,0-7-0.6-10.3-1.8c-3.4-1.2-6.3-3.1-8.7-5.7l3-12.5c-0.2,3.3,0.1,6.1,1,8.6c0.9,2.4,2,4.4,3.6,6c1.5,1.6,3.3,2.7,5.2,3.5
			s3.9,1.1,5.9,1.1c1.7,0,3.3-0.3,4.8-0.8c1.6-0.5,3-1.3,4.2-2.3c1.2-1,2.2-2.3,2.9-3.9c0.7-1.6,1.1-3.3,1.1-5.4
			c0-2.8-0.7-5.1-2.1-7c-1.4-1.9-3.2-3.6-5.3-5.1c-2.1-1.5-4.4-2.9-6.9-4.2s-4.8-2.7-6.9-4.2c-2.1-1.5-3.9-3.2-5.3-5.1
			c-1.4-2-2.1-4.3-2.1-7c0-2.3,0.5-4.2,1.3-5.9c0.9-1.7,2.1-3,3.6-4.1c1.5-1.1,3.2-1.8,5.1-2.3c1.9-0.5,3.8-0.7,5.8-0.7
			c2.6,0,5.2,0.4,7.7,1.2c2.5,0.8,4.6,1.9,6.2,3.3L266,52.2c0-2.4-0.4-4.5-1.1-6.3c-0.7-1.7-1.6-3.2-2.8-4.3c-1.1-1.1-2.4-2-3.9-2.5
			s-3-0.8-4.5-0.8c-1.4,0-2.7,0.2-4,0.7c-1.3,0.5-2.5,1.1-3.5,2c-1,0.9-1.8,1.9-2.5,3.1s-0.9,2.6-0.9,4.1c0,2.3,0.8,4.3,2.2,6
			c1.5,1.7,3.3,3.3,5.5,4.7c2.2,1.4,4.6,2.8,7.2,4.2c2.6,1.4,5,2.9,7.2,4.5c2.2,1.7,4,3.6,5.5,5.7C272,75.4,272.8,78,272.8,81.1z"/>
		<path class="st0" d="M295.7,94.5c3.1,0,5.5-0.5,7.4-1.7c1.9-1.1,3.3-2.4,4.3-3.9c1-1.4,1.7-2.9,2.1-4.4c0.4-1.4,0.7-2.5,0.9-3.2
			l-2.3,13.8h-30.8v-0.7l24.8-55.3h-9.3c-3.1,0-5.6,0.5-7.5,1.7c-1.8,1.1-3.3,2.4-4.3,3.9c-1,1.4-1.7,2.9-2.1,4.4
			c-0.4,1.4-0.7,2.5-0.9,3.2l2.3-13.8h29.2v0.7l-25,55.3H295.7z"/>
		<path class="st0" d="M388.4,102.8c-1.7,0.5-3.5,0.9-5.4,1.2c-1.9,0.3-3.9,0.5-6,0.5c-3.3,0-6.7-0.5-10.1-1.3
			c-3.4-0.9-6.7-2.4-9.9-4.5c-3.2-2.1-6.1-4.9-8.7-8.4c-2.6-3.5-4.8-7.9-6.4-13.2h-17.8l-1.5,4.8c-1,3.1-1.5,5.6-1.7,7.3
			c-0.2,1.7,0,3.1,0.5,3.9c0.5,0.9,1.3,1.4,2.3,1.7c1.1,0.2,2.3,0.4,3.6,0.5h-17.3c1.7-0.2,3.1-0.4,4.2-0.8s2.1-1,2.9-2
			s1.6-2.3,2.4-4.2c0.8-1.8,1.6-4.2,2.6-7.3l13.7-43.7h0.4l12,37.7c1.8,5.6,3.9,10.2,6.5,13.9c2.6,3.6,5.3,6.5,8.3,8.7
			c3,2.1,6,3.6,9,4.5c3.1,0.8,6,1.3,8.7,1.3c1.4,0,2.7-0.1,4-0.3c1.3-0.2,2.4-0.4,3.5-0.7L388.4,102.8z M324.4,76.2h17.4l-8.6-28.3
			L324.4,76.2z M347.5,23.8l-12.3,11l-0.3-0.3l9.4-13.7L347.5,23.8z"/>
		<path class="st0" d="M381.3,94.5c3.1,0,5.5-0.5,7.4-1.7c1.9-1.1,3.3-2.4,4.3-3.9s1.7-2.9,2.1-4.4c0.4-1.4,0.7-2.5,0.9-3.2
			l-2.3,13.8h-30.8v-0.7l24.8-55.3h-9.3c-3.1,0-5.6,0.5-7.5,1.7c-1.8,1.1-3.3,2.4-4.3,3.9s-1.7,2.9-2.1,4.4
			c-0.4,1.4-0.7,2.5-0.9,3.2l2.3-13.8h29.3v0.7l-25,55.3H381.3z"/>
		<path class="st0" d="M439.1,81.1c0,2.5-0.5,4.8-1.6,6.7c-1.1,1.9-2.5,3.5-4.3,4.8c-1.8,1.3-3.8,2.2-6.1,2.9c-2.3,0.7-4.8,1-7.3,1
			c-3.5,0-7-0.6-10.3-1.8c-3.4-1.2-6.3-3.1-8.7-5.7l3-12.5c-0.2,3.3,0.1,6.1,1,8.6c0.9,2.4,2,4.4,3.6,6c1.5,1.6,3.3,2.7,5.2,3.5
			c2,0.8,3.9,1.1,5.9,1.1c1.7,0,3.3-0.3,4.9-0.8c1.6-0.5,3-1.3,4.2-2.3c1.2-1,2.2-2.3,2.9-3.9c0.7-1.6,1.1-3.3,1.1-5.4
			c0-2.8-0.7-5.1-2.1-7c-1.4-1.9-3.2-3.6-5.3-5.1c-2.1-1.5-4.4-2.9-6.9-4.2c-2.5-1.3-4.8-2.7-6.9-4.2c-2.1-1.5-3.9-3.2-5.3-5.1
			c-1.4-2-2.1-4.3-2.1-7c0-2.3,0.5-4.2,1.3-5.9c0.9-1.7,2.1-3,3.6-4.1c1.5-1.1,3.2-1.8,5.1-2.3c1.9-0.5,3.8-0.7,5.8-0.7
			c2.6,0,5.2,0.4,7.7,1.2c2.5,0.8,4.6,1.9,6.2,3.3l-1.1,10.2c0-2.4-0.4-4.5-1.1-6.3c-0.7-1.7-1.6-3.2-2.8-4.3
			c-1.1-1.1-2.4-2-3.9-2.5s-3-0.8-4.5-0.8c-1.4,0-2.7,0.2-4,0.7s-2.5,1.1-3.5,2c-1,0.9-1.8,1.9-2.5,3.1c-0.6,1.2-0.9,2.6-0.9,4.1
			c0,2.3,0.8,4.3,2.2,6c1.5,1.7,3.3,3.3,5.5,4.7s4.6,2.8,7.2,4.2c2.6,1.4,5,2.9,7.2,4.5c2.2,1.7,4,3.6,5.5,5.7
			C438.3,75.4,439.1,78,439.1,81.1z"/>
		<path class="st0" d="M462,94.5c3.1,0,5.5-0.5,7.4-1.7c1.9-1.1,3.3-2.4,4.3-3.9s1.7-2.9,2.1-4.4s0.7-2.5,0.9-3.2l-2.3,13.8h-30.8
			v-0.7l24.8-55.3h-9.3c-3.1,0-5.6,0.5-7.5,1.7c-1.8,1.1-3.3,2.4-4.3,3.9c-1,1.5-1.7,2.9-2.1,4.4c-0.4,1.4-0.7,2.5-0.9,3.2l2.3-13.8
			h29.3v0.7l-25,55.3H462z"/>
		<path class="st0" d="M539.6,66.8c0,4.9-0.8,9.2-2.6,12.9c-1.7,3.7-3.9,6.8-6.7,9.2c-2.8,2.5-5.9,4.3-9.5,5.5s-7.1,1.9-10.8,1.9
			c-3.7,0-7.4-0.6-10.9-1.9c-3.5-1.2-6.7-3.1-9.4-5.5c-2.8-2.5-5-5.5-6.7-9.2c-1.7-3.7-2.6-8-2.6-12.9c0-5,0.8-9.3,2.6-13
			c1.7-3.7,3.9-6.7,6.7-9.2c2.8-2.5,5.9-4.3,9.5-5.5c3.5-1.2,7.1-1.8,10.8-1.8c3.7,0,7.3,0.6,10.9,1.8c3.6,1.2,6.7,3.1,9.5,5.5
			c2.8,2.5,5,5.6,6.7,9.2C538.8,57.5,539.6,61.8,539.6,66.8z M487.8,66.8c0,4.8,0.6,9,1.9,12.6s3,6.7,5,9.1c2.1,2.4,4.5,4.2,7.1,5.5
			c2.7,1.2,5.4,1.8,8.2,1.8c2.8,0,5.5-0.6,8.1-1.8c2.7-1.2,5.1-3,7.1-5.5c2.1-2.4,3.8-5.5,5-9.1c1.3-3.6,1.9-7.8,1.9-12.6
			c0-4.8-0.6-9.1-1.9-12.7c-1.3-3.6-3-6.6-5-9c-2.1-2.4-4.5-4.2-7.1-5.4c-2.7-1.2-5.4-1.8-8.1-1.8c-2.7,0-5.5,0.6-8.2,1.8
			c-2.7,1.2-5.1,3-7.1,5.4c-2.1,2.4-3.8,5.4-5,9C488.5,57.7,487.8,62,487.8,66.8z"/>
		<path class="st0" d="M612.6,102.8c-1.8,0.5-3.8,1-6,1.3s-4.4,0.5-6.8,0.5c-2.6,0-5.2-0.2-7.9-0.7s-5.2-1.3-7.6-2.4
			c-2.5-1.1-4.8-2.6-6.9-4.6c-2.2-1.9-4.1-4.3-5.7-7.2c-2-3.6-3.9-6.5-5.4-8.6c-1.5-2.1-3.1-3.2-4.8-3.2h-4.7v9.5c0,1.7,0.2,3,0.5,4
			s0.7,1.7,1.3,2.3c0.5,0.5,1.2,0.9,2,1.1c0.8,0.2,1.6,0.4,2.4,0.5h-18.6c0.9-0.1,1.7-0.3,2.5-0.5c0.8-0.2,1.4-0.6,1.9-1.1
			c0.5-0.5,0.9-1.3,1.2-2.3c0.3-1,0.5-2.3,0.5-4v-41c0-1.7-0.2-3-0.5-4c-0.3-1-0.7-1.7-1.2-2.3c-0.5-0.5-1.1-0.9-1.9-1.1
			c-0.8-0.2-1.6-0.4-2.5-0.5h17.3c4.3,0,7.9,0.9,10.9,2.7c3,1.8,5.2,4,6.8,6.8c1.6,2.7,2.4,5.7,2.6,9c0.2,3.3-0.4,6.4-1.6,9.2
			c-1.2,2.9-3.1,5.4-5.7,7.5s-5.9,3.4-9.8,3.9c1.7,0.2,3.3,0.6,4.6,1.2c1.3,0.6,2.5,1.4,3.6,2.3c1.1,0.9,2.1,2,3,3.3
			c0.9,1.2,1.9,2.6,2.8,4.1c1.9,2.9,3.9,5.3,6.1,7.3c2.2,1.9,4.4,3.4,6.7,4.6s4.6,1.9,6.9,2.4c2.3,0.5,4.5,0.7,6.6,0.7
			c1.4,0,2.8-0.1,4.1-0.3c1.3-0.2,2.4-0.4,3.5-0.7L612.6,102.8z M556.7,77.2h4.7c3,0,5.5-0.9,7.6-2.8s3.6-4.2,4.6-7
			c1-2.8,1.5-5.9,1.5-9.2s-0.5-6.4-1.5-9.2c-1-2.8-2.5-5.1-4.6-7c-2-1.9-4.6-2.8-7.6-2.8h-0.2c-0.8,0-1.5,0.1-2.1,0.2
			c-0.6,0.1-1.1,0.5-1.4,0.9c-0.4,0.5-0.6,1.2-0.8,2.1c-0.2,0.9-0.2,2.1-0.2,3.6V77.2z"/>
		<path class="st0" d="M625,81.1c0,2.5-0.5,4.8-1.6,6.7c-1.1,1.9-2.5,3.5-4.3,4.8c-1.8,1.3-3.8,2.2-6.1,2.9c-2.3,0.7-4.8,1-7.3,1
			c-3.5,0-7-0.6-10.3-1.8c-3.4-1.2-6.3-3.1-8.7-5.7l3-12.5c-0.2,3.3,0.1,6.1,1,8.6c0.9,2.4,2,4.4,3.6,6c1.5,1.6,3.3,2.7,5.2,3.5
			c2,0.8,3.9,1.1,5.9,1.1c1.7,0,3.3-0.3,4.9-0.8c1.6-0.5,3-1.3,4.2-2.3c1.2-1,2.2-2.3,2.9-3.9c0.7-1.6,1.1-3.3,1.1-5.4
			c0-2.8-0.7-5.1-2.1-7c-1.4-1.9-3.2-3.6-5.3-5.1c-2.1-1.5-4.4-2.9-6.9-4.2s-4.8-2.7-6.9-4.2c-2.1-1.5-3.9-3.2-5.3-5.1
			c-1.4-2-2.1-4.3-2.1-7c0-2.3,0.5-4.2,1.3-5.9c0.9-1.7,2.1-3,3.6-4.1c1.5-1.1,3.2-1.8,5.1-2.3c1.9-0.5,3.8-0.7,5.8-0.7
			c2.6,0,5.2,0.4,7.7,1.2c2.5,0.8,4.6,1.9,6.2,3.3l-1.1,10.2c0-2.4-0.4-4.5-1.1-6.3c-0.7-1.7-1.6-3.2-2.8-4.3
			c-1.1-1.1-2.4-2-3.9-2.5s-3-0.8-4.5-0.8c-1.4,0-2.7,0.2-4,0.7s-2.5,1.1-3.5,2c-1,0.9-1.8,1.9-2.5,3.1s-0.9,2.6-0.9,4.1
			c0,2.3,0.8,4.3,2.2,6c1.5,1.7,3.3,3.3,5.5,4.7c2.2,1.4,4.6,2.8,7.2,4.2c2.6,1.4,5,2.9,7.2,4.5c2.2,1.7,4,3.6,5.5,5.7
			C624.2,75.4,625,78,625,81.1z"/>
		<path class="st0" d="M647.9,94.5c3.1,0,5.5-0.5,7.4-1.7c1.9-1.1,3.3-2.4,4.3-3.9c1-1.5,1.7-2.9,2.1-4.4c0.4-1.4,0.7-2.5,0.9-3.2
			l-2.3,13.8h-30.8v-0.7l24.8-55.3H645c-3.1,0-5.6,0.5-7.5,1.7c-1.8,1.1-3.3,2.4-4.3,3.9c-1,1.5-1.7,2.9-2.1,4.4
			c-0.4,1.4-0.7,2.5-0.9,3.2l2.3-13.8h29.3v0.7l-25,55.3H647.9z"/>
		<path class="st0" d="M701.4,95.2L701.4,95.2L666,95.3c0.9-0.1,1.7-0.3,2.5-0.5c0.8-0.2,1.4-0.6,1.9-1.1c0.5-0.5,0.9-1.3,1.2-2.3
			c0.3-1,0.5-2.3,0.5-4v-41c0-1.7-0.2-3-0.5-4c-0.3-1-0.7-1.7-1.2-2.3c-0.5-0.5-1.1-0.9-1.9-1.1c-0.8-0.2-1.6-0.4-2.5-0.5h34.4
			l2.3,13.8c-0.2-0.7-0.5-1.7-0.9-3.2c-0.4-1.4-1.1-2.9-2.1-4.4s-2.5-2.7-4.3-3.9c-1.8-1.1-4.3-1.7-7.5-1.7h-9.4v25.8h10.6
			c1.3,0,2.3-0.2,3.1-0.8c0.8-0.5,1.3-1.1,1.7-1.9c0.4-0.8,0.7-1.6,0.9-2.5c0.2-0.9,0.3-1.7,0.5-2.5v16c-0.1-0.8-0.3-1.6-0.5-2.4
			c-0.2-0.9-0.5-1.7-0.9-2.5c-0.4-0.8-1-1.4-1.7-2c-0.8-0.5-1.8-0.8-3.1-0.8h-10.6v22c0,1.5,0.1,2.7,0.2,3.6
			c0.1,0.9,0.5,1.6,0.9,2.1s1.2,0.8,2.2,0.9c1,0.1,2.3,0.2,4.1,0.2h2.9c3.1,0,5.6-0.5,7.5-1.7c1.8-1.1,3.3-2.4,4.3-3.9
			s1.7-2.9,2.1-4.4s0.7-2.5,0.9-3.2L701.4,95.2z M693.7,23.8l-12.3,11l-0.3-0.3l9.4-13.7L693.7,23.8z"/>
		<path class="st0" d="M722,87.4c0,1.7,0.2,3,0.5,4c0.3,1,0.7,1.7,1.3,2.3c0.5,0.5,1.2,0.9,2,1.1c0.8,0.2,1.6,0.4,2.4,0.5h-18.6
			c0.9-0.1,1.7-0.3,2.5-0.5c0.8-0.2,1.4-0.6,1.9-1.1c0.5-0.5,0.9-1.3,1.2-2.3s0.5-2.3,0.5-4v-41c0-1.7-0.2-3-0.5-4
			c-0.3-1-0.7-1.7-1.2-2.3s-1.1-0.9-1.9-1.1c-0.8-0.2-1.6-0.4-2.5-0.5h17.3c4.5,0,8.3,1,11.3,2.9c3,2,5.2,4.4,6.7,7.3
			c1.5,2.9,2.2,6.1,2.2,9.5c0,3.4-0.8,6.6-2.3,9.5s-3.8,5.4-6.8,7.3c-3,2-6.7,2.9-11.2,2.9H722L722,87.4L722,87.4z M722,77.2h4.7
			c3,0,5.5-0.9,7.6-2.8c2-1.9,3.6-4.2,4.6-7c1-2.8,1.5-5.9,1.5-9.2s-0.5-6.4-1.5-9.2c-1-2.8-2.5-5.1-4.6-7c-2-1.9-4.6-2.8-7.6-2.8
			h-0.2c-0.8,0-1.5,0.1-2.1,0.2c-0.6,0.1-1.1,0.5-1.4,0.9c-0.4,0.5-0.6,1.2-0.8,2.1s-0.2,2.1-0.2,3.6V77.2z"/>
	</g>
	<g>
		<g>
			<path class="st0" d="M247.2,167.1c0,1.7,0.2,3,0.5,4c0.3,1,0.7,1.7,1.3,2.3c0.5,0.5,1.2,0.9,2,1.1c0.8,0.2,1.6,0.4,2.4,0.5h-18.7
				c0.9-0.1,1.7-0.3,2.5-0.5c0.8-0.2,1.4-0.6,1.9-1.1c0.5-0.5,0.9-1.3,1.2-2.3c0.3-1,0.5-2.3,0.5-4v-41c0-1.7-0.2-3-0.5-4
				c-0.3-1-0.7-1.7-1.2-2.3s-1.1-0.9-1.9-1.1c-0.8-0.2-1.6-0.4-2.5-0.5h18.6c-0.9,0.1-1.7,0.3-2.4,0.5c-0.8,0.2-1.4,0.6-2,1.1
				c-0.5,0.5-1,1.3-1.3,2.3s-0.5,2.3-0.5,4L247.2,167.1L247.2,167.1z M300.6,182.5c-1.8,0.5-3.8,1-5.9,1.3c-2.2,0.3-4.4,0.5-6.7,0.5
				c-2.6,0-5.2-0.2-7.9-0.7s-5.2-1.3-7.7-2.5c-2.5-1.2-4.8-2.7-7-4.6c-2.2-1.9-4.1-4.3-5.8-7.1l-11.7-20.3l0.1-0.1h-0.1l14.3-21.7
				c4-6.1,3.9-9.1-0.3-9.1h13.1c-1,0.1-1.9,0.2-2.8,0.6c-0.9,0.3-1.8,0.8-2.8,1.5c-0.9,0.7-1.9,1.6-3,2.7c-1,1.1-2.1,2.6-3.3,4.3
				L252,144.2c2.4,4.1,4.8,8.1,7.2,12.1c2.4,4,4.8,8,7.5,12c1.9,2.9,3.9,5.3,6.1,7.3c2.2,1.9,4.4,3.4,6.7,4.6s4.6,1.9,6.9,2.4
				c2.3,0.5,4.5,0.7,6.6,0.7c1.4,0,2.7-0.1,4-0.3c1.3-0.2,2.4-0.4,3.5-0.7L300.6,182.5z"/>
			<path class="st0" d="M332.6,146.5c0,4.9-0.8,9.2-2.6,12.9c-1.7,3.7-3.9,6.8-6.7,9.2s-5.9,4.3-9.5,5.5c-3.6,1.2-7.1,1.9-10.8,1.9
				c-3.7,0-7.4-0.6-10.9-1.9c-3.5-1.2-6.7-3.1-9.4-5.5c-2.8-2.5-5-5.5-6.7-9.2c-1.7-3.7-2.6-8-2.6-12.9c0-5,0.8-9.3,2.6-13
				c1.7-3.7,3.9-6.7,6.7-9.2s5.9-4.3,9.5-5.5c3.5-1.2,7.1-1.8,10.8-1.8c3.7,0,7.3,0.6,10.9,1.8c3.6,1.2,6.7,3.1,9.5,5.5
				c2.8,2.5,5,5.6,6.7,9.2S332.6,141.6,332.6,146.5z M280.8,146.5c0,4.8,0.6,9,1.9,12.6c1.3,3.6,3,6.7,5,9.1
				c2.1,2.4,4.5,4.2,7.1,5.5c2.7,1.2,5.4,1.8,8.2,1.8s5.5-0.6,8.1-1.8c2.7-1.2,5.1-3,7.1-5.5c2.1-2.4,3.8-5.5,5-9.1
				c1.3-3.6,1.9-7.8,1.9-12.6c0-4.8-0.6-9.1-1.9-12.7c-1.3-3.6-3-6.6-5-9c-2.1-2.4-4.5-4.2-7.1-5.4c-2.7-1.2-5.4-1.8-8.1-1.8
				s-5.5,0.6-8.2,1.8c-2.7,1.2-5.1,3-7.1,5.4s-3.8,5.4-5,9C281.5,137.4,280.8,141.7,280.8,146.5z"/>
			<path class="st0" d="M354.7,174.2c3.1,0,5.5-0.5,7.4-1.7c1.9-1.1,3.3-2.4,4.3-3.9c1-1.5,1.7-2.9,2.1-4.4c0.4-1.4,0.7-2.5,0.9-3.2
				l-2.3,13.8h-30.8v-0.7l24.8-55.3h-9.3c-3.1,0-5.6,0.5-7.5,1.7c-1.8,1.1-3.3,2.4-4.3,3.9s-1.7,2.9-2.1,4.4
				c-0.4,1.4-0.7,2.5-0.9,3.2l2.3-13.8h29.3v0.7l-25,55.3H354.7z"/>
			<path class="st0" d="M411.5,126.7l-14.2,49.2h-0.6l-17-50.1v37.2c0,3.3,0.6,6.1,1.7,8.3s2.6,3.4,4.4,3.6h-12.8
				c1.8-0.3,3.3-1.5,4.4-3.6c1.1-2.2,1.7-4.9,1.7-8.3v-36.9c0-1.7-0.2-3-0.5-4c-0.3-1-0.7-1.7-1.3-2.3c-0.5-0.5-1.2-0.9-1.9-1.1
				c-0.7-0.2-1.6-0.4-2.5-0.5h10.6l16,47.8l13.8-47.8h10.8c-0.9,0.1-1.7,0.3-2.5,0.5s-1.4,0.6-1.9,1.1c-0.5,0.5-0.9,1.3-1.2,2.3
				c-0.3,1-0.5,2.3-0.5,4v41c0,1.7,0.2,3,0.5,4c0.3,1,0.7,1.7,1.2,2.3c0.5,0.5,1.1,0.9,1.9,1.1c0.8,0.2,1.6,0.4,2.5,0.5h-18.6
				c0.9-0.1,1.7-0.3,2.5-0.5c0.7-0.2,1.4-0.6,1.9-1.1c0.5-0.5,1-1.3,1.3-2.3c0.3-1,0.5-2.3,0.5-4L411.5,126.7L411.5,126.7z"/>
			<path class="st0" d="M465.1,174.9L465.1,174.9l-35.4,0.1c0.9-0.1,1.7-0.3,2.5-0.5c0.8-0.2,1.4-0.6,1.9-1.1
				c0.5-0.5,0.9-1.3,1.2-2.3c0.3-1,0.5-2.3,0.5-4v-41c0-1.7-0.2-3-0.5-4c-0.3-1-0.7-1.7-1.2-2.3c-0.5-0.5-1.1-0.9-1.9-1.1
				c-0.8-0.2-1.6-0.4-2.5-0.5h34.4l2.3,13.8c-0.2-0.7-0.5-1.7-0.9-3.2c-0.4-1.4-1.1-2.9-2.1-4.4c-1-1.4-2.5-2.7-4.3-3.9
				s-4.3-1.7-7.5-1.7h-9.4v25.8h10.6c1.3,0,2.3-0.2,3.1-0.8c0.8-0.5,1.3-1.1,1.7-1.9c0.4-0.8,0.7-1.6,0.9-2.5
				c0.2-0.9,0.3-1.7,0.5-2.5v16c-0.1-0.8-0.3-1.6-0.5-2.4c-0.2-0.9-0.5-1.7-0.9-2.5c-0.4-0.8-1-1.4-1.7-2c-0.8-0.5-1.8-0.8-3.1-0.8
				h-10.6v22c0,1.5,0.1,2.7,0.2,3.6c0.1,0.9,0.5,1.6,0.9,2.1c0.5,0.5,1.2,0.8,2.2,0.9c1,0.1,2.3,0.2,4.1,0.2h2.9
				c3.1,0,5.6-0.5,7.5-1.7c1.8-1.1,3.3-2.4,4.3-3.9c1.1-1.5,1.7-2.9,2.1-4.4s0.7-2.5,0.9-3.2L465.1,174.9z"/>
			<path class="st0" d="M493.4,167.1c0,1.7,0.2,3,0.5,4c0.3,1,0.7,1.7,1.2,2.3c0.5,0.5,1.1,0.9,1.9,1.1c0.8,0.2,1.6,0.4,2.4,0.5
				h-18.6c0.9-0.1,1.7-0.3,2.5-0.5s1.4-0.6,1.9-1.1c0.5-0.5,0.9-1.3,1.2-2.3c0.3-1,0.5-2.3,0.5-4v-48.2h-0.1c-3.1,0-5.6,0.5-7.5,1.7
				c-1.8,1.1-3.3,2.4-4.3,3.9c-1,1.4-1.7,2.9-2.1,4.4c-0.4,1.4-0.7,2.5-0.9,3.2l2.3-13.8h31.6l2.4,13.8c-0.2-0.7-0.5-1.7-1-3.2
				c-0.4-1.4-1.1-2.9-2.1-4.4s-2.4-2.7-4.3-3.9s-4.3-1.7-7.4-1.7h-0.1L493.4,167.1L493.4,167.1z"/>
			<path class="st0" d="M525.3,167.1c0,1.7,0.2,3,0.5,4c0.3,1,0.7,1.7,1.3,2.3c0.5,0.5,1.2,0.9,2,1.1c0.8,0.2,1.6,0.4,2.4,0.5h-18.6
				c0.9-0.1,1.7-0.3,2.5-0.5c0.8-0.2,1.4-0.6,1.9-1.1c0.5-0.5,0.9-1.3,1.2-2.3c0.3-1,0.5-2.3,0.5-4v-41c0-1.7-0.2-3-0.5-4
				c-0.3-1-0.7-1.7-1.2-2.3c-0.5-0.5-1.1-0.9-1.9-1.1c-0.8-0.2-1.6-0.4-2.5-0.5h18.6c-0.9,0.1-1.7,0.3-2.4,0.5
				c-0.8,0.2-1.4,0.6-2,1.1c-0.5,0.5-1,1.3-1.3,2.3s-0.5,2.3-0.5,4V167.1z"/>
			<path class="st0" d="M549.7,167.1c0,1.7,0.2,3,0.5,4c0.3,1,0.7,1.7,1.3,2.3c0.5,0.5,1.2,0.9,2,1.1c0.8,0.2,1.6,0.4,2.4,0.5h-18.6
				c0.9-0.1,1.7-0.3,2.5-0.5c0.8-0.2,1.4-0.6,1.9-1.1c0.5-0.5,0.9-1.3,1.2-2.3c0.3-1,0.5-2.3,0.5-4v-41c0-1.7-0.2-3-0.5-4
				c-0.3-1-0.7-1.7-1.2-2.3c-0.5-0.5-1.1-0.9-1.9-1.1c-0.8-0.2-1.6-0.4-2.5-0.5h18.6c-0.9,0.1-1.7,0.3-2.4,0.5
				c-0.8,0.2-1.4,0.6-2,1.1c-0.5,0.5-1,1.3-1.3,2.3s-0.5,2.3-0.5,4V167.1z M603.1,182.5c-1.8,0.5-3.8,1-5.9,1.3
				c-2.2,0.3-4.4,0.5-6.7,0.5c-2.6,0-5.2-0.2-7.9-0.7s-5.2-1.3-7.7-2.5c-2.5-1.2-4.8-2.7-7-4.6c-2.2-1.9-4.1-4.3-5.8-7.1l-11.7-20.3
				l0.1-0.1h-0.1l14.3-21.7c4-6.1,3.9-9.1-0.3-9.1h13.1c-1,0.1-1.9,0.2-2.8,0.6c-0.9,0.3-1.8,0.8-2.8,1.5c-0.9,0.7-1.9,1.6-3,2.7
				c-1,1.1-2.1,2.6-3.3,4.3l-11.1,16.9c2.4,4.1,4.8,8.1,7.2,12.1c2.4,4,4.8,8,7.5,12c1.9,2.9,3.9,5.3,6.1,7.3
				c2.2,1.9,4.4,3.4,6.7,4.6s4.6,1.9,6.9,2.4c2.3,0.5,4.5,0.7,6.6,0.7c1.4,0,2.7-0.1,4-0.3c1.3-0.2,2.4-0.4,3.5-0.7L603.1,182.5z"/>
			<path class="st0" d="M651,182.5c-1.7,0.5-3.5,0.9-5.4,1.2c-1.9,0.3-3.9,0.5-6,0.5c-3.3,0-6.7-0.5-10.1-1.3
				c-3.4-0.9-6.7-2.4-9.9-4.5c-3.2-2.1-6.1-4.9-8.7-8.4c-2.6-3.5-4.8-7.9-6.4-13.2h-17.8l-1.5,4.8c-1,3.1-1.5,5.6-1.7,7.3
				c-0.1,1.7,0,3.1,0.5,3.9c0.5,0.9,1.3,1.4,2.3,1.7c1.1,0.2,2.3,0.4,3.6,0.5h-17.3c1.7-0.2,3.1-0.4,4.2-0.8s2.1-1,2.9-2
				c0.8-1,1.6-2.3,2.4-4.2c0.8-1.8,1.6-4.2,2.6-7.3l13.7-43.7h0.4l12,37.7c1.8,5.6,3.9,10.2,6.5,13.9c2.6,3.6,5.3,6.5,8.3,8.7
				c3,2.1,6,3.6,9,4.5c3.1,0.8,6,1.3,8.7,1.3c1.4,0,2.7-0.1,4-0.3c1.3-0.2,2.4-0.4,3.5-0.7L651,182.5z M587,155.9h17.4l-8.6-28.3
				L587,155.9z"/>
		</g>
	</g>
	<g>
		<g>
			<linearGradient id="SVGID_1_" gradientUnits="userSpaceOnUse" x1="84.6923" y1="69.7564" x2="125.8474" y2="35.5995">
				<stop  offset="0" style="stop-color:#AD8454"/>
				<stop  offset="0.45" style="stop-color:#FBC380"/>
				<stop  offset="0.9725" style="stop-color:#AD8454"/>
			</linearGradient>
			<path class="st1" d="M120.2,49.2c-0.2-7.6-2.7-14.6-4.6-19.6c0,0-5.7-16.2-11.7-13.8C101,17,90.3,30.3,90.7,49.2
				c0.4,16.6,9.7,27.4,12.2,30.1c-0.6,0.9-1.1,2.1-1.4,3.5c-1.3-0.9-2.6-1.2-3.5-0.7c-0.7,0.4-1.1,1.2-1.1,2.3
				c2.9-1.2,6.2-1.8,9.5-1.8c1,0,2.1,0.1,3.1,0.2c-0.3-1.4-0.8-2.5-1.4-3.4C111.3,75.6,120.5,64.1,120.2,49.2z M106,78.5
				c0.2-3.3,0.5-8.7,0.5-14.7c0-10.1-0.9-18.3-0.9-18.3s-0.9,8.2-0.9,18.3c0,6,0.3,11.4,0.5,14.7c-0.5,0.1-0.9,0.3-1.3,0.8
				c-2.6-3.1-10.1-13-11-27.9C92.3,35.8,97.7,28.3,100,25c0.9-1.2,3.8-4.3,5.4-4.3c5.8,0,12.4,15.3,12.1,29.7
				c-0.1,5-1.2,16.3-10.3,28.8C106.9,78.8,106.4,78.6,106,78.5z M112.9,82.1c-0.9-0.5-2.2-0.2-3.5,0.7c0.7,0.1,1.3,0.2,1.9,0.3
				c0.9,0.2,1.7,0.4,2.6,0.7C113.8,82.9,113.5,82.4,112.9,82.1z"/>
		</g>
		<g>
			
				<linearGradient id="SVGID_00000001666158789912009160000016377122996088441773_" gradientUnits="userSpaceOnUse" x1="64.6703" y1="68.7665" x2="88.2379" y2="49.2064">
				<stop  offset="0" style="stop-color:#AD8454"/>
				<stop  offset="0.45" style="stop-color:#FBC380"/>
				<stop  offset="0.9725" style="stop-color:#AD8454"/>
			</linearGradient>
			<path style="fill:url(#SVGID_00000001666158789912009160000016377122996088441773_);" d="M99.4,82.9c-0.7,0-1.4,0.5-2,1.2
				c1-0.4,2-0.7,3.1-0.9C100.1,83,99.8,82.9,99.4,82.9z M88.3,51.1c-4.1-6.4-10-11-14.2-14.3c0,0-13.3-10.8-17.2-5.6
				c-1.9,2.5-4,19.5,6.3,35.4c9,13.9,22.6,18.3,26.1,19.3c0,0.8,0.1,1.7,0.4,2.7c1.9-1.6,4-2.9,6.3-3.8c-0.8-0.7-1.5-1.2-2.3-1.6
				C94.6,78.2,96.4,63.7,88.3,51.1z M92.6,83.4c-0.6-0.1-1.1-0.1-1.5,0c-1.5-3-4.1-7.7-7.2-12.8c-5.1-8.4-10-14.8-10.3-15.1
				c0.2,0.4,3.7,7.7,8.8,16c3.2,5.1,6.2,9.5,8.2,12.2C90.3,84,90,84.5,89.9,85c-13.3-6-20.1-14-23.2-18.2c-2.3-3.1-3.8-6-4-6.4
				c-0.9-1.7-3.5-7.3-4.2-15.2c-0.3-3.9-0.8-8.7,1.7-10.5c0.5-0.3,1-0.5,1.4-0.6c1.4-0.4,3.4-0.3,7.5,2.4c3.4,2.2,5.4,4.3,5.4,4.3
				c6.4,5.8,9.6,8.7,12.5,13.6C94.2,66.6,93.2,79,92.6,83.4z M86.6,90.7c-0.2,0.3-0.2,0.6-0.2,1c0.7-0.8,1.4-1.5,2.1-2.2
				C87.6,89.7,86.9,90.1,86.6,90.7z"/>
		</g>
		<g>
			
				<linearGradient id="SVGID_00000104701823224298708290000002880048277597877404_" gradientUnits="userSpaceOnUse" x1="42.0672" y1="92.9588" x2="71.1437" y2="68.8265">
				<stop  offset="0" style="stop-color:#AD8454"/>
				<stop  offset="0.45" style="stop-color:#FBC380"/>
				<stop  offset="0.9725" style="stop-color:#AD8454"/>
			</linearGradient>
			<path style="fill:url(#SVGID_00000104701823224298708290000002880048277597877404_);" d="M85.8,90.5c-0.9,0.5-1.3,1.8-1.2,3.4
				c-1.3-0.4-2.6-0.6-3.7-0.6c-1.5-4.7-6.7-18.5-19.7-25.8c-6.6-3.7-13.9-5.1-19.2-6c0,0-16.8-3.3-17.8,3c-0.5,3.1,5.5,19.1,22,28.4
				c14.5,8.1,28.5,5.7,32.1,4.9c0.5,1,1.2,2,2.3,3c-1.5,0.7-2.4,1.6-2.4,2.7c0,1,0.7,1.9,2,2.5c0.7-5.4,2.9-10.2,6.3-14.1
				c0.4-0.5,0.8-0.9,1.3-1.4C87,90.1,86.3,90.2,85.8,90.5z M79.5,95c-2.8-2-7.4-5-12.7-8.2c-9-5.3-16.6-8.9-16.6-8.9
				s6.8,5,15.8,10.3c5.3,3.2,10.2,5.7,13.3,7.2c-0.2,0.4-0.2,1,0,1.5c-4.9,0.5-16.9,1-29.7-5.7C38.9,86,32.9,78.3,30.1,74.2
				c-0.9-1.7-2.5-5.6-0.8-8.1c2.3-3.5,9.4-2.4,14.5-1.6c3.7,0.6,10.4,1.8,17.9,6.4c12.5,7.7,17.6,19.2,19.3,23.4
				C80.3,94.5,79.8,94.7,79.5,95z"/>
		</g>
		<g>
			
				<linearGradient id="SVGID_00000168805984451638048540000005095495733229329051_" gradientUnits="userSpaceOnUse" x1="28.1706" y1="130.1803" x2="74.2885" y2="91.9042">
				<stop  offset="0" style="stop-color:#AD8454"/>
				<stop  offset="0.45" style="stop-color:#FBC380"/>
				<stop  offset="0.9725" style="stop-color:#AD8454"/>
			</linearGradient>
			<path style="fill:url(#SVGID_00000168805984451638048540000005095495733229329051_);" d="M79.9,109.3c0-0.8,0-1.6,0.1-2.4
				c-1.2,0.3-2.2,0.7-3,1.2c-3.7-3.3-15.2-12.5-30.1-12.2c-7.6,0.2-14.6,2.7-19.6,4.6c0,0-16.2,5.7-13.8,11.7
				c1.2,2.9,14.5,13.6,33.4,13.2c16.6-0.4,27.4-9.7,30.1-12.2c0.9,0.6,2,1,3.4,1.3C80.1,112.9,79.9,111.1,79.9,109.3z M62.4,111.3
				c6,0,11.4-0.3,14.7-0.5c0.1,0.5,0.3,0.9,0.8,1.3C75,114.5,65,122.5,49.9,123c-14.3,0.5-24.4-6-27.6-8.2c-1-0.8-2.1-1.9-2.2-3.4
				c-0.3-4.2,8.1-7.7,11.9-9.3c3.8-1.6,9.7-4.1,17.9-4c14.5,0,24.7,8,27.9,10.7c-0.4,0.4-0.7,0.8-0.8,1.3c-3.3-0.2-8.7-0.5-14.7-0.5
				c-10.1,0-18.3,0.9-18.3,0.9S52.3,111.3,62.4,111.3z M79.8,103.2c-0.4,0.8-0.3,1.8,0.3,2.9c0-0.1,0-0.2,0-0.2
				c0.1-1.2,0.4-2.4,0.7-3.5C80.3,102.6,80,102.8,79.8,103.2z M80.4,114.8c-0.9,1.3-1.2,2.5-0.6,3.4c0.4,0.6,1.1,1,2,1.1
				C81.2,117.9,80.8,116.3,80.4,114.8z"/>
		</g>
		
			<linearGradient id="SVGID_00000147213889566634342810000001252202546502999993_" gradientUnits="userSpaceOnUse" x1="29.7839" y1="161.0483" x2="83.6097" y2="116.3751">
			<stop  offset="0" style="stop-color:#AD8454"/>
			<stop  offset="0.45" style="stop-color:#FBC380"/>
			<stop  offset="0.9725" style="stop-color:#AD8454"/>
		</linearGradient>
		<path style="fill:url(#SVGID_00000147213889566634342810000001252202546502999993_);" d="M86.5,127c-0.1,1.5,0.3,2.6,1.1,3.2
			c0.6,0.4,1.4,0.3,2.2,0C88.6,129.3,87.5,128.2,86.5,127z M80.3,122.8c-4.9-1-19.3-3.4-32.2,4.2c-6.6,3.9-11.3,9.5-14.8,13.6
			c0,0-11.3,12.9-6.3,16.9c2.5,2,19.3,4.8,35.6-4.9c14.2-8.5,19.1-21.8,20.3-25.4c1,0.1,2.2-0.1,3.5-0.4c-1.7-2-3.1-4.1-4.1-6.5
			C81.4,121.1,80.7,122,80.3,122.8z M63.2,149.3c-7.8,4.7-15.3,6.1-19.7,6.5c-5.8,1.4-11,1-12.6-1.7c-1.9-3.2,2.3-8.7,5.6-13.1
			c2.5-3.3,6.8-8.8,14.4-12.9c12.9-7.1,25.9-5.2,30.2-4.3c-0.2,0.6-0.2,1.1,0,1.5c-3.1,1.4-8,3.9-13.3,6.9
			c-8.7,4.9-15.4,9.6-15.8,9.9c0.5-0.2,8-3.5,16.6-8.4c5.3-3,9.9-5.9,12.8-7.8c0.3,0.4,0.7,0.6,1.3,0.8
			C80.9,130.7,75.6,141.8,63.2,149.3z M81.9,119.4c0,0,0-0.1-0.1-0.1c-0.4-1.1-0.8-2.2-1.1-3.3c-0.3,0.4-0.4,0.8-0.4,1.2
			C80.3,118,80.9,118.8,81.9,119.4z"/>
		<g>
			
				<linearGradient id="SVGID_00000124126244460676029700000017674235165137285538_" gradientUnits="userSpaceOnUse" x1="53.3101" y1="181.4504" x2="106.8054" y2="137.0515">
				<stop  offset="0" style="stop-color:#AD8454"/>
				<stop  offset="0.45" style="stop-color:#FBC380"/>
				<stop  offset="0.9725" style="stop-color:#AD8454"/>
			</linearGradient>
			<path style="fill:url(#SVGID_00000124126244460676029700000017674235165137285538_);" d="M98.7,134.9c-2.6-0.8-5-2-7.2-3.5
				c-0.3,1.2-0.5,2.3-0.4,3.3c-4.7,1.6-18.3,7-25.5,20.1c-3.6,6.7-4.8,14-5.7,19.3c0,0-3,16.9,3.3,17.8c3.1,0.4,19-5.9,28-22.5
				c7.9-14.6,5.2-28.6,4.4-32.2c1-0.5,2-1.3,2.9-2.3c0.7,1.5,1.7,2.4,2.7,2.4c0.8,0,1.5-0.5,2.1-1.4
				C101.7,135.7,100.2,135.4,98.7,134.9z M90.8,165.9c-6.5,13-20.3,24.1-25.5,21.2c-3-1.7-2.8-7.7-2.5-13.6
				c0.5-10.3,4.6-17.7,5.7-19.5c7.5-12.7,19.6-17.5,23.7-18.9c0.1,0.6,0.4,1,0.8,1.3c-1.9,2.8-4.8,7.3-7.8,12.5
				c-5,8.8-8.3,16.3-8.3,16.3s4.8-6.7,9.8-15.5c3-5.2,5.4-10,6.8-13c0.4,0.2,1,0.1,1.5,0C95.8,142.4,96.7,154.1,90.8,165.9z
				 M91,131.1c-0.4-0.3-0.8-0.6-1.2-0.9c-0.6-0.5-1.3-1.1-1.9-1.7c-0.1,0.5,0,1,0.2,1.4C88.7,130.7,89.7,131.1,91,131.1z"/>
		</g>
		<g>
			
				<linearGradient id="SVGID_00000085954244884414869890000011712364271882603951_" gradientUnits="userSpaceOnUse" x1="126.46" y1="168.3903" x2="149.8099" y2="149.0108">
				<stop  offset="0" style="stop-color:#AD8454"/>
				<stop  offset="0.45" style="stop-color:#FBC380"/>
				<stop  offset="0.9725" style="stop-color:#AD8454"/>
			</linearGradient>
			<path style="fill:url(#SVGID_00000085954244884414869890000011712364271882603951_);" d="M150.8,151.6
				c-10-13.2-23.8-16.6-27.4-17.4c0-1.1-0.3-2.3-0.9-3.6c1.6,0,2.9-0.5,3.3-1.5c0.2-0.5,0.2-1.1,0-1.7c-2.7,3-6,5.3-9.8,6.8
				c-1.7,0.7-3.4,1.2-5.3,1.5c0.8,1.4,1.8,2.3,2.9,2.2c1.1-0.1,1.9-1.1,2.5-2.7c1,0.9,2.1,1.6,3.1,2c-0.5,4.9-1.3,19.6,7.7,31.6
				c4.6,6.1,10.7,10.2,15.2,13.2c0,0,14.1,9.8,17.5,4.4C161.2,183.8,162.2,166.7,150.8,151.6z M156.4,183
				c-3.4,2.7-11.4-2.4-15.2-4.8c-3-2-8.6-5.6-13.5-12.7c-8.1-11.7-8-24.1-7.8-28.5c0.6,0.1,1.1,0.1,1.5-0.1
				c1.7,2.9,4.6,7.4,8.1,12.3c5.9,8.2,11.4,14.4,11.4,14.4s-4.1-7.2-10-15.4c-3.5-4.9-6.9-9.1-9-11.6c0.3-0.3,0.5-0.8,0.6-1.4
				c4.1,1.1,15.9,4.8,25,16.3c7.2,9,9.1,18.3,9.8,22.7C157.8,176.2,158.7,181.1,156.4,183z"/>
		</g>
		<g>
			
				<linearGradient id="SVGID_00000137827011611437339510000003469675943381054869_" gradientUnits="userSpaceOnUse" x1="89.4593" y1="182.003" x2="129.7342" y2="148.5764">
				<stop  offset="0" style="stop-color:#AD8454"/>
				<stop  offset="0.45" style="stop-color:#FBC380"/>
				<stop  offset="0.9725" style="stop-color:#AD8454"/>
			</linearGradient>
			<path style="fill:url(#SVGID_00000137827011611437339510000003469675943381054869_);" d="M123.1,169.6
				c-0.9-16.5-10.5-27.1-13.1-29.7c0.6-0.9,1-2.1,1.3-3.5c1.3,0.9,2.7,1.2,3.6,0.6c0.8-0.5,1.1-1.4,1.1-2.7c-3,1.2-6.2,1.8-9.6,1.8
				c-2.7,0-5.2-0.4-7.6-1.1c0.1,1.1,0.5,2,1.2,2.4c0.9,0.5,2.2,0.2,3.5-0.8c0.3,1.4,0.9,2.6,1.5,3.4c-3.2,3.8-12,15.5-11.2,30.5
				c0.4,7.6,3.2,14.5,5.2,19.5c0,0,6.2,16,12.1,13.4C113.9,202.1,124.2,188.4,123.1,169.6z M113.1,196.6c-0.7,0.9-1.8,1.9-3,2
				c-4.3,0.3-8-9.3-9.7-13.5c-1.8-4.6-4-10.2-4.1-18c-0.2-14.2,6.7-24.4,9.4-28c0.4,0.4,0.9,0.7,1.3,0.7c-0.1,3.3-0.3,8.7-0.1,14.7
				c0.3,10.1,1.4,18.3,1.4,18.3s0.6-8.2,0.3-18.3c-0.2-6-0.7-11.4-1-14.7c0.5-0.1,0.9-0.4,1.3-0.8c2.8,3.5,9.9,13,11.1,27.3
				C121.3,181.6,115.3,192.8,113.1,196.6z"/>
		</g>
		
			<linearGradient id="SVGID_00000005251430040532233940000005041958403850281391_" gradientUnits="userSpaceOnUse" x1="141.7854" y1="149.1243" x2="172.7486" y2="123.4262">
			<stop  offset="0" style="stop-color:#AD8454"/>
			<stop  offset="0.45" style="stop-color:#FBC380"/>
			<stop  offset="0.9725" style="stop-color:#AD8454"/>
		</linearGradient>
		<path style="fill:url(#SVGID_00000005251430040532233940000005041958403850281391_);" d="M166.7,124.3
			c-14.8-7.4-28.7-4.3-32.3-3.3c-0.5-0.9-1.3-1.9-2.4-2.8c1.4-0.7,2.3-1.7,2.3-2.8c0-0.9-0.7-1.6-1.7-2.2
			c-0.8,5.5-3.2,10.4-6.7,14.3c-0.3,0.4-0.7,0.7-1.1,1.1c0.9,0.4,1.8,0.5,2.5,0c0.9-0.6,1.2-1.9,1-3.5c1.4,0.4,2.6,0.5,3.7,0.4
			c1.8,4.7,7.6,18.1,20.9,24.8c6.8,3.4,14.2,4.4,19.5,5.1c0,0,17,2.5,17.7-3.8C190.3,148.5,183.6,132.8,166.7,124.3z M184.5,149.4
			c-1.9,3.5-9.1,2.9-14.4,2.4c-4.7-0.4-11-1-18-4.7c-12.9-6.9-18-19-19.3-22.6c0.6-0.2,1-0.4,1.3-0.8c2.8,1.8,7.4,4.5,12.7,7.4
			c8.7,4.6,16.1,7.6,16.6,7.8c-0.4-0.3-7.1-4.7-15.8-9.3c-5.3-2.8-10.2-5.1-13.3-6.4c0.1-0.4,0.1-1-0.1-1.5c3.9-0.8,16-2.9,29.2,3.2
			c11.7,5.5,17.8,14.3,20,17.9C184.4,144.5,185.6,147.3,184.5,149.4z"/>
		
			<linearGradient id="SVGID_00000116925653253420020330000009990771282280158094_" gradientUnits="userSpaceOnUse" x1="139.0181" y1="125.8953" x2="186.9337" y2="86.1273">
			<stop  offset="0" style="stop-color:#AD8454"/>
			<stop  offset="0.45" style="stop-color:#FBC380"/>
			<stop  offset="0.9725" style="stop-color:#AD8454"/>
		</linearGradient>
		<path style="fill:url(#SVGID_00000116925653253420020330000009990771282280158094_);" d="M199.7,104.4c-1.3-2.9-15-13.1-33.8-12
			c-16.5,1-27,10.6-29.7,13.2c-0.9-0.6-2.1-1-3.5-1.2c0.9-1.4,1.2-2.7,0.6-3.6c-0.4-0.7-1.2-1-2.2-1.1c1.1,3,1.7,6.2,1.7,9.5
			c0,1.3-0.1,2.6-0.3,3.8c-0.2,1.3-0.5,2.6-0.8,3.9c1-0.1,1.8-0.5,2.1-1.2c0.5-0.9,0.1-2.2-0.8-3.5c1.4-0.3,2.6-0.9,3.4-1.5
			c3.8,3.1,15.6,11.9,30.5,11.1c7.6-0.4,14.5-3.3,19.4-5.3C186.3,116.6,202.3,110.3,199.7,104.4z M164.4,120.2
			c-13.5,0-23.5-6.7-27.9-10.1c0.4-0.4,0.6-0.9,0.7-1.3c3.3,0.1,8.7,0.2,14.7,0c10.1-0.4,18.3-1.5,18.3-1.5s-8.2-0.6-18.3-0.2
			c-6,0.2-11.4,0.7-14.7,1.1c-0.1-0.5-0.4-0.9-0.8-1.3c4.3-3.7,13.8-10.9,27.2-12c14.2-1.1,31.1,4.7,31.4,11.1
			C195.3,112.4,179,120.2,164.4,120.2z"/>
		<g>
			
				<linearGradient id="SVGID_00000145778912698544586090000002243451342762656686_" gradientUnits="userSpaceOnUse" x1="109.3555" y1="80.5909" x2="161.9472" y2="36.9419">
				<stop  offset="0" style="stop-color:#AD8454"/>
				<stop  offset="0.45" style="stop-color:#FBC380"/>
				<stop  offset="0.9725" style="stop-color:#AD8454"/>
			</linearGradient>
			<path style="fill:url(#SVGID_00000145778912698544586090000002243451342762656686_);" d="M150.3,27.2
				c-3.1-0.4-18.7,6.2-27.5,22.9c-7.7,14.7-5.1,28.5-4.3,32.1c-0.9,0.5-1.8,1.2-2.6,2.1c2.4,0.9,4.6,2.2,6.5,3.7
				c0.4-1.2,0.5-2.4,0.4-3.4c4.6-1.7,18-7.3,25-20.5c3.6-6.7,4.8-14,5.6-19.3C153.4,44.8,156.5,28,150.3,27.2z M150.6,47
				c-1.2,9.6-5.1,16.4-6,17.8c-7.2,12.5-18.4,18-22.5,19.7c-0.1-0.6-0.4-1-0.7-1.3c1.9-2.9,4.8-7.5,7.8-12.8
				c4.9-8.7,8.1-16.2,8.3-16.7c-0.3,0.4-4.9,7.1-9.8,15.9c-3,5.4-5.4,10.3-6.8,13.3c-0.4-0.1-0.9-0.1-1.5,0.1
				c-0.5-5.7-0.8-17.1,5-29.5c3.2-6.9,7.3-12,10.6-15.3c5-4.9,10.7-7.1,13.7-5.3C152,35.1,151.2,41.6,150.6,47z M122.7,88.3
				c0.2,0.2,0.4,0.3,0.6,0.5c0.8,0.6,1.5,1.3,2.2,2.1c0.1,0.1,0.2,0.2,0.3,0.3c0.2-0.7,0.2-1.3-0.1-1.8
				C125.2,88.6,124.1,88.2,122.7,88.3z M112.9,82.3c-0.5,0-1,0.3-1.5,0.7c1.4,0.3,2.7,0.6,3.9,1.1C114.7,83,113.8,82.3,112.9,82.3z"
				/>
		</g>
		
			<linearGradient id="SVGID_00000034807366079013363140000001886676871283372201_" gradientUnits="userSpaceOnUse" x1="129.8768" y1="100.2435" x2="183.4693" y2="55.7638">
			<stop  offset="0" style="stop-color:#AD8454"/>
			<stop  offset="0.45" style="stop-color:#FBC380"/>
			<stop  offset="0.9725" style="stop-color:#AD8454"/>
		</linearGradient>
		<path style="fill:url(#SVGID_00000034807366079013363140000001886676871283372201_);" d="M184,59.6c-2.5-1.9-19.5-4.1-35.4,6.1
			c-13.9,9-18.4,22.5-19.4,26.1c-0.8,0-1.7,0.1-2.6,0.3c1.6,1.9,2.9,4,3.8,6.2c0.6-0.7,1.1-1.5,1.5-2.2c4.9,0.9,19.4,2.8,32.1-5.3
			c6.4-4.1,11-9.9,14.3-14.2C178.3,76.8,189.1,63.5,184,59.6z M174.7,76.2c-3.1,3.9-7,8.6-13.8,12.6c-12.4,7.3-24.8,6.3-29.2,5.8
			c0.1-0.6,0.1-1.1,0-1.5c3-1.5,7.8-4.1,13-7.3c8.7-5.3,15.4-10.3,15.4-10.3s-7.5,3.6-16.2,8.9c-5.2,3.2-9.7,6.2-12.4,8.2
			c-0.3-0.4-0.8-0.6-1.3-0.7c1.7-4.2,6.6-15.1,18.5-23.3c12.7-8.8,25.5-9.2,30-9.1c1.2,0.2,2.5,0.6,3.3,1.6
			C184.1,64.6,177.5,72.7,174.7,76.2z M131.1,100c0.3,0.9,0.6,1.8,0.8,2.7c0.1-0.3,0.2-0.6,0.2-0.9
			C132.1,101.2,131.7,100.6,131.1,100z M124.3,89.1c-0.3-0.2-0.6-0.2-1-0.2c0.8,0.6,1.5,1.3,2.2,2.1C125.3,90,124.9,89.4,124.3,89.1
			z"/>
		
			<linearGradient id="SVGID_00000044173039773048864450000000311882235852707485_" gradientUnits="userSpaceOnUse" x1="91.1895" y1="131.3588" x2="91.5908" y2="131.0258">
			<stop  offset="0" style="stop-color:#AD8454"/>
			<stop  offset="0.45" style="stop-color:#FBC380"/>
			<stop  offset="0.9725" style="stop-color:#AD8454"/>
		</linearGradient>
		<path style="fill:url(#SVGID_00000044173039773048864450000000311882235852707485_);" d="M91.6,131.1c0,0.1-0.1,0.3-0.1,0.4
			c-0.2-0.1-0.4-0.2-0.5-0.4C91.2,131.1,91.4,131.1,91.6,131.1z"/>
		
			<linearGradient id="SVGID_00000145771879127628672850000017476504830095231111_" gradientUnits="userSpaceOnUse" x1="86.4182" y1="126.9313" x2="86.5748" y2="126.8014">
			<stop  offset="0" style="stop-color:#AD8454"/>
			<stop  offset="0.45" style="stop-color:#FBC380"/>
			<stop  offset="0.9725" style="stop-color:#AD8454"/>
		</linearGradient>
		<path style="fill:url(#SVGID_00000145771879127628672850000017476504830095231111_);" d="M86.5,126.8c0,0.1,0,0.2,0,0.3
			c-0.1-0.1-0.1-0.1-0.2-0.2C86.4,126.8,86.5,126.8,86.5,126.8z"/>
		
			<linearGradient id="SVGID_00000047755447572420063170000010129336417415535008_" gradientUnits="userSpaceOnUse" x1="80.4033" y1="114.7341" x2="80.5002" y2="114.6536">
			<stop  offset="0" style="stop-color:#AD8454"/>
			<stop  offset="0.45" style="stop-color:#FBC380"/>
			<stop  offset="0.9725" style="stop-color:#AD8454"/>
		</linearGradient>
		<path style="fill:url(#SVGID_00000047755447572420063170000010129336417415535008_);" d="M80.5,114.7c0,0-0.1,0.1-0.1,0.1
			c0,0,0-0.1,0-0.1C80.4,114.7,80.5,114.7,80.5,114.7z"/>
		
			<linearGradient id="SVGID_00000061447866613021495040000008207626517559574198_" gradientUnits="userSpaceOnUse" x1="109.3811" y1="82.7724" x2="109.4368" y2="82.7262">
			<stop  offset="0" style="stop-color:#AD8454"/>
			<stop  offset="0.45" style="stop-color:#FBC380"/>
			<stop  offset="0.9725" style="stop-color:#AD8454"/>
		</linearGradient>
		<path style="fill:url(#SVGID_00000061447866613021495040000008207626517559574198_);" d="M109.5,82.7
			C109.4,82.8,109.4,82.8,109.5,82.7C109.4,82.8,109.4,82.8,109.5,82.7C109.4,82.7,109.4,82.7,109.5,82.7z"/>
		
			<linearGradient id="SVGID_00000008847063138566719300000006883309762055086758_" gradientUnits="userSpaceOnUse" x1="115.4046" y1="84.4159" x2="115.6847" y2="84.1833">
			<stop  offset="0" style="stop-color:#AD8454"/>
			<stop  offset="0.45" style="stop-color:#FBC380"/>
			<stop  offset="0.9725" style="stop-color:#AD8454"/>
		</linearGradient>
		<path style="fill:url(#SVGID_00000008847063138566719300000006883309762055086758_);" d="M115.3,84.2c0.2,0.1,0.3,0.1,0.5,0.2
			c-0.1,0.1-0.2,0.2-0.2,0.3C115.5,84.5,115.4,84.3,115.3,84.2z"/>
		
			<linearGradient id="SVGID_00000085948746572017645780000005022616063647487146_" gradientUnits="userSpaceOnUse" x1="122.287" y1="88.3701" x2="122.5524" y2="88.1498">
			<stop  offset="0" style="stop-color:#AD8454"/>
			<stop  offset="0.45" style="stop-color:#FBC380"/>
			<stop  offset="0.9725" style="stop-color:#AD8454"/>
		</linearGradient>
		<path style="fill:url(#SVGID_00000085948746572017645780000005022616063647487146_);" d="M122.7,88.3c-0.1,0-0.3,0-0.4,0
			c0-0.1,0.1-0.2,0.1-0.3C122.5,88.1,122.6,88.2,122.7,88.3z"/>
		<g>
			<g>
				<g>
					
						<linearGradient id="SVGID_00000052808775861502110710000008240032640054072498_" gradientUnits="userSpaceOnUse" x1="103.7375" y1="84.227" x2="109.7138" y2="84.227" gradientTransform="matrix(1 0 0 -1 0 207.7696)">
						<stop  offset="0" style="stop-color:#714921"/>
						<stop  offset="1" style="stop-color:#BC987E"/>
					</linearGradient>
					<path style="fill:url(#SVGID_00000052808775861502110710000008240032640054072498_);" d="M106.7,124.3c-1.6,0-2.6-0.7-2.7-0.7
						c-0.2-0.1-0.3-0.4-0.1-0.6c0.1-0.2,0.4-0.3,0.6-0.1c0.1,0.1,2,1.3,4.6,0c0.2-0.1,0.5,0,0.6,0.2s0,0.5-0.2,0.6
						C108.4,124.2,107.5,124.3,106.7,124.3z"/>
				</g>
				<g>
					
						<linearGradient id="SVGID_00000089568139110205663960000009612129923913489031_" gradientUnits="userSpaceOnUse" x1="104.5089" y1="92.9457" x2="109.2233" y2="92.9457" gradientTransform="matrix(1 0 0 -1 0 207.7696)">
						<stop  offset="0" style="stop-color:#714921"/>
						<stop  offset="1" style="stop-color:#BC987E"/>
					</linearGradient>
					<path style="fill:url(#SVGID_00000089568139110205663960000009612129923913489031_);" d="M106.8,115.6c-1.3,0-2-0.6-2.1-0.6
						c-0.2-0.2-0.2-0.5-0.1-0.7c0.2-0.2,0.5-0.2,0.7-0.1c0.1,0,1.3,1,3.3,0c0.2-0.1,0.5,0,0.6,0.2c0.1,0.2,0,0.5-0.2,0.6
						C108.1,115.4,107.4,115.6,106.8,115.6z"/>
				</g>
				<g>
					
						<linearGradient id="SVGID_00000143593878310260315580000005783799549493829297_" gradientUnits="userSpaceOnUse" x1="88.5553" y1="104.4334" x2="101.4209" y2="104.4334" gradientTransform="matrix(1 0 0 -1 0 207.7696)">
						<stop  offset="0" style="stop-color:#714921"/>
						<stop  offset="1" style="stop-color:#BC987E"/>
					</linearGradient>
					<path style="fill:url(#SVGID_00000143593878310260315580000005783799549493829297_);" d="M101.4,105c0,0-4.6,1-10.1-3.9
						l-2.8,0.4C88.6,101.5,93.8,107.3,101.4,105z"/>
				</g>
				<g>
					
						<linearGradient id="SVGID_00000084528537513280836100000009423139483375369905_" gradientUnits="userSpaceOnUse" x1="91.1027" y1="107.8624" x2="103.9571" y2="107.8624" gradientTransform="matrix(1 0 0 -1 0 207.7696)">
						<stop  offset="0" style="stop-color:#714921"/>
						<stop  offset="1" style="stop-color:#BC987E"/>
					</linearGradient>
					<path style="fill:url(#SVGID_00000084528537513280836100000009423139483375369905_);" d="M103.5,103c-0.2,0-0.4-0.1-0.4-0.3
						c0,0-0.9-2.8-3.6-4.2c-2.1-1.1-4.7-1.1-7.7-0.1c-0.2,0.1-0.5-0.1-0.6-0.3c-0.1-0.2,0.1-0.5,0.3-0.6c3.3-1.1,6.1-1,8.4,0.2
						c3.1,1.6,4,4.6,4.1,4.7c0.1,0.2-0.1,0.5-0.3,0.6C103.6,103,103.5,103,103.5,103z"/>
				</g>
				
					<linearGradient id="SVGID_00000033356516344974330440000014666881138278670000_" gradientUnits="userSpaceOnUse" x1="101.4027" y1="87.5312" x2="112.162" y2="87.5312" gradientTransform="matrix(1 0 0 -1 0 207.7696)">
					<stop  offset="0" style="stop-color:#714921"/>
					<stop  offset="1" style="stop-color:#BC987E"/>
				</linearGradient>
				<path style="fill:url(#SVGID_00000033356516344974330440000014666881138278670000_);" d="M109.8,119.5c-1-0.7-2.3-1-3,0.6
					c-0.8-1.6-2.1-1.3-3-0.6c-0.7,0.5-2.4,0.9-2.4,0.9c0.6-0.1,2,0.9,3.1,1.1c1.3,0.3,2.2,0,2.3,0c0,0,0.9,0.3,2.3,0
					c1.1-0.2,2.5-1.2,3.1-1.1C112.2,120.3,110.5,120,109.8,119.5z"/>
				<g>
					
						<linearGradient id="SVGID_00000145780998743717789660000012483039691490116277_" gradientUnits="userSpaceOnUse" x1="112.1255" y1="104.4334" x2="124.9911" y2="104.4334" gradientTransform="matrix(1 0 0 -1 0 207.7696)">
						<stop  offset="0" style="stop-color:#714921"/>
						<stop  offset="1" style="stop-color:#BC987E"/>
					</linearGradient>
					<path style="fill:url(#SVGID_00000145780998743717789660000012483039691490116277_);" d="M112.1,105c0,0,4.6,1,10.1-3.9
						l2.8,0.4C125,101.5,119.8,107.3,112.1,105z"/>
				</g>
				<g>
					
						<linearGradient id="SVGID_00000082354891087265390820000013337671705514441865_" gradientUnits="userSpaceOnUse" x1="109.5985" y1="107.8578" x2="122.4528" y2="107.8578" gradientTransform="matrix(1 0 0 -1 0 207.7696)">
						<stop  offset="0" style="stop-color:#714921"/>
						<stop  offset="1" style="stop-color:#BC987E"/>
					</linearGradient>
					<path style="fill:url(#SVGID_00000082354891087265390820000013337671705514441865_);" d="M110.1,103c0,0-0.1,0-0.1,0
						c-0.2-0.1-0.4-0.3-0.3-0.6c0-0.1,1-3.1,4.1-4.7c2.3-1.2,5.1-1.2,8.4-0.2c0.2,0.1,0.4,0.3,0.3,0.6c-0.1,0.2-0.3,0.4-0.6,0.3
						c-3-1-5.6-1-7.7,0.1c-2.7,1.4-3.6,4.1-3.6,4.2C110.4,102.9,110.3,103,110.1,103z"/>
				</g>
			</g>
			<g>
				<g>
					
						<linearGradient id="SVGID_00000129921014397759326380000010085054097077465996_" gradientUnits="userSpaceOnUse" x1="92.2061" y1="76.6052" x2="98.8477" y2="76.6052" gradientTransform="matrix(1 0 0 -1 0 207.7696)">
						<stop  offset="0" style="stop-color:#714921"/>
						<stop  offset="1" style="stop-color:#BC987E"/>
					</linearGradient>
					<path style="fill:url(#SVGID_00000129921014397759326380000010085054097077465996_);" d="M97.1,134.9c0.3,0.1,0.6,0.2,0.8,0.4
						c0.1-0.5,0.3-1,0.4-1.6c0.6-3.3,0.4-6.1,0.4-6.2c0-0.3-0.2-0.4-0.5-0.4c-0.3,0-0.4,0.2-0.4,0.5
						C97.9,127.6,98.1,131.2,97.1,134.9z"/>
					
						<linearGradient id="SVGID_00000008113299194039364220000009052545682832376982_" gradientUnits="userSpaceOnUse" x1="114.7068" y1="76.7283" x2="121.3476" y2="76.7283" gradientTransform="matrix(1 0 0 -1 0 207.7696)">
						<stop  offset="0" style="stop-color:#714921"/>
						<stop  offset="1" style="stop-color:#BC987E"/>
					</linearGradient>
					<path style="fill:url(#SVGID_00000008113299194039364220000009052545682832376982_);" d="M115.5,135.1c0.2-0.2,0.5-0.3,0.8-0.4
						c-0.9-3.6-0.7-7.1-0.7-7.1c0-0.3-0.2-0.5-0.4-0.5c-0.3,0-0.5,0.2-0.5,0.4c0,0.1-0.2,2.9,0.4,6.2
						C115.3,134.2,115.4,134.6,115.5,135.1z"/>
				</g>
				
					<linearGradient id="SVGID_00000027602937210512893630000003181298021826970290_" gradientUnits="userSpaceOnUse" x1="85.8016" y1="91.9914" x2="127.7448" y2="91.9914" gradientTransform="matrix(1 0 0 -1 0 207.7696)">
					<stop  offset="0" style="stop-color:#714921"/>
					<stop  offset="1" style="stop-color:#BC987E"/>
				</linearGradient>
				<path style="fill:url(#SVGID_00000027602937210512893630000003181298021826970290_);" d="M126.9,99.8
					C126.9,99.8,126.9,99.9,126.9,99.8c-0.2,3.9-1.2,13.6-7.1,22.4c-4.5,6.6-12.4,8.5-13,8.6c-0.6-0.1-8.5-2-13-8.6
					c-5.9-8.8-7-18.6-7.1-22.3c0,0,0-0.1,0-0.1c-0.3,0.4-0.6,0.9-0.8,1.4c0.6,7.7,3.1,15.5,7.2,21.5c4.9,7.2,13.3,8.9,13.6,9
					c0,0,0.1,0,0.1,0c0,0,0,0,0.1,0c0,0,0,0,0.1,0c0,0,0.1,0,0.1,0c0.4-0.1,8.8-1.8,13.6-9c4-6,6.6-13.8,7.2-21.5
					C127.5,100.7,127.2,100.3,126.9,99.8z"/>
			</g>
		</g>
	</g>
</g>
</svg>
